<?xml version="1.0" encoding="UTF-8" standalone="no"?>
<!-- Created with Inkscape (http://www.inkscape.org/) -->
<svg xmlns:dc="http://purl.org/dc/elements/1.1/" xmlns:cc="http://creativecommons.org/ns#" xmlns:rdf="http://www.w3.org/1999/02/22-rdf-syntax-ns#" xmlns:svg="http://www.w3.org/2000/svg" xmlns="http://www.w3.org/2000/svg" xmlns:sodipodi="http://sodipodi.sourceforge.net/DTD/sodipodi-0.dtd" xmlns:inkscape="http://www.inkscape.org/namespaces/inkscape" id="svg2" sodipodi:version="0.32" inkscape:version="0.46" width="843.11334" height="598.84467" version="1.0" sodipodi:docname="Myeloid_cells_es.svg" inkscape:output_extension="org.inkscape.output.svg.inkscape">
  <metadata id="metadata7">
    <rdf:RDF>
      <cc:Work rdf:about="">
        <dc:format>image/svg+xml</dc:format>
        <dc:type rdf:resource="http://purl.org/dc/dcmitype/StillImage"/>
      </cc:Work>
    </rdf:RDF>
  </metadata>
  <defs id="defs5">
    <inkscape:perspective sodipodi:type="inkscape:persp3d" inkscape:vp_x="0 : 526.18109 : 1" inkscape:vp_y="0 : 1000 : 0" inkscape:vp_z="744.09448 : 526.18109 : 1" inkscape:persp3d-origin="372.04724 : 350.78739 : 1" id="perspective9"/>
  </defs>
  <sodipodi:namedview inkscape:window-height="1076" inkscape:window-width="2048" inkscape:pageshadow="2" inkscape:pageopacity="0.0" guidetolerance="10.0" gridtolerance="10.0" objecttolerance="10.0" borderopacity="1.0" bordercolor="#666666" pagecolor="#ffffff" id="base" showgrid="false" inkscape:zoom="0.88388348" inkscape:cx="817.19717" inkscape:cy="225.78311" inkscape:window-x="0" inkscape:window-y="25" inkscape:current-layer="svg2"/>
  <path sodipodi:type="arc" style="fill:none;fill-opacity:1;fill-rule:nonzero;stroke:#000000;stroke-width:3;stroke-linecap:round;stroke-linejoin:round;stroke-miterlimit:4;stroke-dasharray:none;stroke-opacity:1" id="path2456" sodipodi:cx="-108.8" sodipodi:cy="334.60001" sodipodi:rx="20" sodipodi:ry="19.6" d="M -88.800003,334.60001 A 20,19.6 0 1 1 -128.8,334.60001 A 20,19.6 0 1 1 -88.800003,334.60001 z" transform="translate(147.548,-34.706)"/>
  <path sodipodi:type="arc" style="fill:#784482;fill-opacity:0.74551972;fill-rule:nonzero;stroke:#000000;stroke-width:3;stroke-linecap:round;stroke-linejoin:round;stroke-miterlimit:4;stroke-dasharray:none;stroke-opacity:1" id="path2458" sodipodi:cx="-105.6" sodipodi:cy="339.79999" sodipodi:rx="14.4" sodipodi:ry="13.6" d="M -91.199999,339.79999 A 14.4,13.6 0 1 1 -120,339.79999 A 14.4,13.6 0 1 1 -91.199999,339.79999 z" transform="translate(143.948,-39.106)"/>
  <path sodipodi:type="arc" style="fill:none;fill-opacity:1;fill-rule:nonzero;stroke:#000000;stroke-width:3;stroke-linecap:round;stroke-linejoin:round;stroke-miterlimit:4;stroke-dasharray:none;stroke-opacity:1" id="path2460" sodipodi:cx="-108.8" sodipodi:cy="334.60001" sodipodi:rx="20" sodipodi:ry="19.6" d="M -88.800003,334.60001 A 20,19.6 0 1 1 -128.8,334.60001 A 20,19.6 0 1 1 -88.800003,334.60001 z" transform="translate(281.948,-34.70601)"/>
  <path sodipodi:type="arc" style="fill:#784482;fill-opacity:0.74551972;fill-rule:nonzero;stroke:#000000;stroke-width:3;stroke-linecap:round;stroke-linejoin:round;stroke-miterlimit:4;stroke-dasharray:none;stroke-opacity:1" id="path2462" sodipodi:cx="-105.6" sodipodi:cy="339.79999" sodipodi:rx="14.4" sodipodi:ry="13.6" d="M -91.199999,339.79999 A 14.4,13.6 0 1 1 -120,339.79999 A 14.4,13.6 0 1 1 -91.199999,339.79999 z" transform="translate(278.348,-39.10601)"/>
  <path sodipodi:type="arc" style="fill:none;fill-opacity:1;fill-rule:nonzero;stroke:#000000;stroke-width:3;stroke-linecap:round;stroke-linejoin:round;stroke-miterlimit:4;stroke-dasharray:none;stroke-opacity:1" id="path2464" sodipodi:cx="-108.8" sodipodi:cy="334.60001" sodipodi:rx="20" sodipodi:ry="19.6" d="M -88.800003,334.60001 A 20,19.6 0 1 1 -128.8,334.60001 A 20,19.6 0 1 1 -88.800003,334.60001 z" transform="translate(281.948,94.89399)"/>
  <path sodipodi:type="arc" style="fill:#784482;fill-opacity:0.74551972;fill-rule:nonzero;stroke:#000000;stroke-width:3;stroke-linecap:round;stroke-linejoin:round;stroke-miterlimit:4;stroke-dasharray:none;stroke-opacity:1" id="path2466" sodipodi:cx="-105.6" sodipodi:cy="339.79999" sodipodi:rx="14.4" sodipodi:ry="13.6" d="M -91.199999,339.79999 A 14.4,13.6 0 1 1 -120,339.79999 A 14.4,13.6 0 1 1 -91.199999,339.79999 z" transform="translate(278.348,90.49399)"/>
  <path sodipodi:type="arc" style="fill:none;fill-opacity:1;fill-rule:nonzero;stroke:#000000;stroke-width:3;stroke-linecap:round;stroke-linejoin:round;stroke-miterlimit:4;stroke-dasharray:none;stroke-opacity:1" id="path2468" sodipodi:cx="-108.8" sodipodi:cy="334.60001" sodipodi:rx="20" sodipodi:ry="19.6" d="M -88.800003,334.60001 A 20,19.6 0 1 1 -128.8,334.60001 A 20,19.6 0 1 1 -88.800003,334.60001 z" transform="translate(281.948,-161.10601)"/>
  <path sodipodi:type="arc" style="fill:#784482;fill-opacity:0.74551972;fill-rule:nonzero;stroke:#000000;stroke-width:3;stroke-linecap:round;stroke-linejoin:round;stroke-miterlimit:4;stroke-dasharray:none;stroke-opacity:1" id="path2470" sodipodi:cx="-105.6" sodipodi:cy="339.79999" sodipodi:rx="14.4" sodipodi:ry="13.6" d="M -91.199999,339.79999 A 14.4,13.6 0 1 1 -120,339.79999 A 14.4,13.6 0 1 1 -91.199999,339.79999 z" transform="translate(278.348,-165.50601)"/>
  <path sodipodi:type="arc" style="fill:none;fill-opacity:1;fill-rule:nonzero;stroke:#000000;stroke-width:3;stroke-linecap:round;stroke-linejoin:round;stroke-miterlimit:4;stroke-dasharray:none;stroke-opacity:1" id="path2474" sodipodi:cx="-108.8" sodipodi:cy="334.60001" sodipodi:rx="20" sodipodi:ry="19.6" d="M -88.800003,334.60001 A 20,19.6 0 1 1 -128.8,334.60001 A 20,19.6 0 1 1 -88.800003,334.60001 z" transform="translate(366.748,-313.10601)"/>
  <path sodipodi:type="arc" style="fill:#784482;fill-opacity:0.74551972;fill-rule:nonzero;stroke:#000000;stroke-width:3;stroke-linecap:round;stroke-linejoin:round;stroke-miterlimit:4;stroke-dasharray:none;stroke-opacity:1" id="path2476" sodipodi:cx="-105.6" sodipodi:cy="339.79999" sodipodi:rx="14.4" sodipodi:ry="13.6" d="M -91.199999,339.79999 A 14.4,13.6 0 1 1 -120,339.79999 A 14.4,13.6 0 1 1 -91.199999,339.79999 z" transform="translate(364.748,-315.10601)"/>
  <path sodipodi:type="arc" style="fill:none;fill-opacity:1;fill-rule:nonzero;stroke:#000000;stroke-width:3;stroke-linecap:round;stroke-linejoin:round;stroke-miterlimit:4;stroke-dasharray:none;stroke-opacity:1" id="path2480" sodipodi:cx="-108.8" sodipodi:cy="334.60001" sodipodi:rx="20" sodipodi:ry="19.6" d="M -88.800003,334.60001 A 20,19.6 0 1 1 -128.8,334.60001 A 20,19.6 0 1 1 -88.800003,334.60001 z" transform="translate(361.948,-225.10601)"/>
  <path sodipodi:type="arc" style="fill:#784482;fill-opacity:0.74551972;fill-rule:nonzero;stroke:#000000;stroke-width:3;stroke-linecap:round;stroke-linejoin:round;stroke-miterlimit:4;stroke-dasharray:none;stroke-opacity:1" id="path2482" sodipodi:cx="-105.6" sodipodi:cy="339.79999" sodipodi:rx="14.4" sodipodi:ry="13.6" d="M -91.199999,339.79999 A 14.4,13.6 0 1 1 -120,339.79999 A 14.4,13.6 0 1 1 -91.199999,339.79999 z" transform="translate(359.948,-227.10601)"/>
  <path sodipodi:type="arc" style="fill:none;fill-opacity:1;fill-rule:nonzero;stroke:#000000;stroke-width:3;stroke-linecap:round;stroke-linejoin:round;stroke-miterlimit:4;stroke-dasharray:none;stroke-opacity:1" id="path2486" sodipodi:cx="-108.8" sodipodi:cy="334.60001" sodipodi:rx="20" sodipodi:ry="19.6" d="M -88.800003,334.60001 A 20,19.6 0 1 1 -128.8,334.60001 A 20,19.6 0 1 1 -88.800003,334.60001 z" transform="translate(373.148,-146.70601)"/>
  <path sodipodi:type="arc" style="fill:#784482;fill-opacity:0.74551972;fill-rule:nonzero;stroke:#000000;stroke-width:3;stroke-linecap:round;stroke-linejoin:round;stroke-miterlimit:4;stroke-dasharray:none;stroke-opacity:1" id="path2488" sodipodi:cx="-105.6" sodipodi:cy="339.79999" sodipodi:rx="14.4" sodipodi:ry="13.6" d="M -91.199999,339.79999 A 14.4,13.6 0 1 1 -120,339.79999 A 14.4,13.6 0 1 1 -91.199999,339.79999 z" transform="translate(371.148,-148.70601)"/>
  <path style="fill:#784482;fill-opacity:0.74551972;fill-rule:evenodd;stroke:#000000;stroke-width:3;stroke-linecap:butt;stroke-linejoin:miter;stroke-miterlimit:4;stroke-dasharray:none;stroke-opacity:1" d="M 492.5168,267.9815 L 478.7355,271.88775 L 473.9542,277.4815 L 474.7355,287.88775 L 483.548,289.4815 L 478.7355,299.88775 L 492.3605,301.4815 L 499.1418,299.63775 C 502.6462,291.10841 501.9542,272.70025 501.9542,272.70025 L 492.5168,267.9815 z" id="path3265"/>
  <path style="fill:none;fill-rule:evenodd;stroke:#000000;stroke-width:3;stroke-linecap:butt;stroke-linejoin:miter;stroke-miterlimit:4;stroke-dasharray:none;stroke-opacity:1" d="M 484.3605,263.88775 C 479.8972,263.45692 468.77,265.07834 464.3605,269.4815 C 459.951,273.88466 458.1187,284.46503 458.7355,289.4815 C 459.3523,294.49797 461.9418,299.90025 465.1418,300.70025 C 468.3418,301.50025 473.0368,306.75242 477.1418,307.88775 C 481.2468,309.02308 487.5909,308.94052 491.548,307.88775 C 495.5051,306.83498 503.15,303.99264 502.7355,301.4815 C 502.321,298.97036 498.6594,300.8524 498.7355,300.70025 C 498.8116,300.5481 499.4937,299.54208 499.1418,299.63775 C 499.1418,299.63775 495.4637,301.24984 492.3605,301.4815 C 489.2573,301.71316 480.5815,303.18342 478.7355,299.88775 C 476.8895,296.59208 484.9607,292.19936 483.548,289.4815 C 482.1353,286.76364 476.6826,290.04858 474.7355,287.88775 C 472.7884,285.72692 473.1243,280.01835 473.9542,277.4815 C 474.7841,274.94465 475.997,273.64253 478.7355,271.88775 C 481.474,270.13297 492.1849,271.48334 492.5168,267.9815 C 492.8487,264.47966 488.8238,264.31858 484.3605,263.88775 z" id="path2490" sodipodi:nodetypes="czzzzzzzzzzzzzzzz"/>
  <path style="fill:#784482;fill-opacity:0.74551972;fill-rule:evenodd;stroke:#000000;stroke-width:3;stroke-linecap:butt;stroke-linejoin:miter;stroke-miterlimit:4;stroke-dasharray:none;stroke-opacity:1" d="M 487.548,323.88775 L 482.0738,325.72035 C 480.9559,324.04448 484.2776,325.84561 480.8292,325.51275 C 476.3659,325.08193 465.2387,326.70334 460.8292,331.1065 C 456.4197,335.50967 454.5874,346.09003 455.2042,351.1065 C 455.821,356.12298 458.4105,361.52525 461.6105,362.32525 C 464.8105,363.12526 469.5055,368.37742 473.6105,369.51275 C 477.7155,370.64809 484.0596,370.56552 488.0168,369.51275 C 491.1522,368.67858 496.5945,366.72651 498.5168,364.70025 L 498.7355,365.4815 C 498.7355,365.4815 500.0518,364.49233 500.3605,363.88775 C 503.1234,358.47589 502.5245,349.87723 503.548,343.88775 C 504,341.24281 506.2166,337.56513 505.1418,335.1065 C 502.6349,329.37203 502.748,331.08774 487.548,323.88775 z M 474.5605,337.71678 C 476.9888,348.36339 488.5283,344.18683 491.7958,343.40922 C 481.2948,346.44543 478.5893,363.37914 496.6184,365.43652 C 507.5913,366.68868 465.0245,369.09787 463.6119,366.38001 C 462.1991,363.66216 458.7264,354.50201 456.7792,352.34118 C 454.8321,350.18036 460.5421,331.46101 461.372,328.92416 C 462.2019,326.38732 478.9712,327.34793 481.7096,325.59315 C 484.4481,323.83838 472.2487,335.65392 472.5806,332.15208 C 472.593,332.02076 474.5601,337.83889 474.5605,337.71678 z" id="path3267" sodipodi:nodetypes="ccssssssccssscccssssssc"/>
  <path sodipodi:type="arc" style="fill:#784482;fill-opacity:0.74551972;fill-rule:nonzero;stroke:#000000;stroke-width:3;stroke-linecap:round;stroke-linejoin:round;stroke-miterlimit:4;stroke-dasharray:none;stroke-opacity:1" id="path3271" sodipodi:cx="-108.8" sodipodi:cy="334.60001" sodipodi:rx="20" sodipodi:ry="19.6" d="M -88.800003,334.60001 A 20,19.6 0 1 1 -128.8,334.60001 A 20,19.6 0 1 1 -88.800003,334.60001 z" transform="matrix(1.2438453,0,0,1.1875972,605.6784,144.12395)"/>
  <path sodipodi:type="arc" style="fill:#784482;fill-opacity:0.74551972;fill-rule:nonzero;stroke:#000000;stroke-width:3;stroke-linecap:round;stroke-linejoin:round;stroke-miterlimit:4;stroke-dasharray:none;stroke-opacity:1" id="path3275" sodipodi:cx="1677.6" sodipodi:cy="221.8" sodipodi:rx="11.2" sodipodi:ry="10" d="M 1688.8,221.8 A 11.2,10 0 1 1 1666.4,221.8 A 11.2,10 0 1 1 1688.8,221.8 z" transform="translate(-1056.452,139.294)"/>
  <path sodipodi:type="arc" style="fill:#784482;fill-opacity:0.74551972;fill-rule:nonzero;stroke:#000000;stroke-width:3;stroke-linecap:round;stroke-linejoin:round;stroke-miterlimit:4;stroke-dasharray:none;stroke-opacity:1" id="path3277" sodipodi:cx="1672" sodipodi:cy="119.4" sodipodi:rx="4.8000002" sodipodi:ry="4.4000001" d="M 1676.8,119.4 A 4.8000002,4.4000001 0 1 1 1667.2,119.4 A 4.8000002,4.4000001 0 1 1 1676.8,119.4 z" transform="translate(-1056.452,139.294)"/>
  <path style="fill:none;fill-rule:evenodd;stroke:#000000;stroke-width:3;stroke-linecap:butt;stroke-linejoin:miter;stroke-miterlimit:4;stroke-dasharray:none;stroke-opacity:1" d="M 618.748,250.294 C 618.748,250.294 621.148,244.694 623.548,243.494 C 625.948,242.294 629.148,240.294 632.748,237.894 C 636.348,235.494 645.148,230.694 643.148,230.694 C 641.148,230.694 643.148,227.494 635.948,230.694 C 628.748,233.894 623.548,235.894 623.548,235.894 C 620.6147,240.16067 617.6813,244.42733 614.748,248.694 C 614.748,248.694 612.348,251.094 610.748,244.694 C 609.148,238.294 606.748,228.694 606.748,228.694 C 605.948,228.96067 604.3678,228.74302 604.348,229.494 C 604.2344,233.80969 605.7772,239.08318 606.348,243.894 C 606.7106,246.94985 608.8762,252.2561 607.148,253.094 C 604.4762,254.38943 597.8203,250.44472 593.148,250.294 C 589.5536,250.17805 583.5001,250.97727 582.348,252.294 C 581.6335,253.1106 585.8147,255.22733 587.548,256.694 C 587.548,256.694 592.348,255.094 594.348,255.894 C 596.348,256.694 599.548,257.494 601.548,258.294 C 603.548,259.094 606.5007,260.00462 607.148,261.894 C 607.8492,263.94054 606.748,267.894 604.748,268.694 C 602.748,269.494 600.348,271.494 597.548,271.894 C 594.748,272.294 593.129,272.08956 593.148,273.494 C 593.1685,275.01175 596.348,275.494 597.948,275.094 C 599.548,274.694 602.348,276.694 605.548,273.894 C 608.748,271.094 613.548,267.094 613.548,267.094 C 613.548,266.694 613.548,266.294 613.548,265.894 C 613.548,265.894 618.748,265.094 618.748,267.494 C 618.748,269.894 619.148,275.494 619.948,277.094 C 620.748,278.694 619.948,282.694 622.348,283.894 C 624.748,285.094 626.2375,284.23514 627.148,283.094 C 628.4225,281.49662 628.748,282.294 626.748,276.294 C 624.748,270.294 621.548,262.294 621.548,262.294 C 621.548,260.82733 621.548,259.36067 621.548,257.894 C 621.548,257.894 625.948,257.894 628.348,259.494 C 630.748,261.094 633.2556,262.63469 635.548,262.294 C 637.6613,261.97992 643.948,257.894 641.148,257.894 C 638.348,257.894 631.948,255.494 630.348,255.494 C 628.748,255.494 627.548,255.894 623.948,253.894 C 620.348,251.894 617.948,249.494 618.748,250.294 z" id="path3279" sodipodi:nodetypes="csssssssssssssssssssssssssssssssssssss"/>
  <path style="fill:none;fill-rule:evenodd;stroke:#000000;stroke-width:3;stroke-linecap:butt;stroke-linejoin:miter;stroke-miterlimit:4;stroke-dasharray:none;stroke-opacity:1" d="M 643.148,347.894 C 643.148,347.894 645.548,338.694 643.148,337.894 C 640.748,337.094 636.748,335.894 634.748,333.494 C 632.748,331.094 633.148,328.694 628.348,327.494 C 623.548,326.294 622.748,329.494 617.548,325.494 C 612.348,321.494 605.946,311.71403 600.748,314.694 C 598.2473,316.12763 602.5157,321.75663 601.148,324.294 C 600.152,326.14181 601.548,327.094 595.148,327.894 C 588.748,328.694 584.748,323.894 582.348,329.894 C 579.948,335.894 578.748,335.494 580.748,339.894 C 582.748,344.294 585.4258,348.00545 585.948,351.894 C 586.5127,356.09889 582.748,363.494 583.948,365.894 C 585.148,368.294 588.748,373.094 592.748,374.294 C 596.748,375.494 606.348,375.894 611.148,380.294 C 615.948,384.694 615.548,388.694 618.348,388.694 C 621.148,388.694 628.348,390.694 632.748,385.894 C 637.148,381.094 642.748,371.094 641.548,365.494 C 640.348,359.894 639.948,355.894 639.148,353.894 C 638.348,351.894 643.548,347.894 643.148,347.894 z" id="path3281" sodipodi:nodetypes="cssssssssssssssssss"/>
  <path style="fill:none;fill-rule:evenodd;stroke:#000000;stroke-width:3;stroke-linecap:butt;stroke-linejoin:miter;stroke-miterlimit:4;stroke-dasharray:none;stroke-opacity:1" d="M 586.748,519.894 C 586.748,519.894 584.748,509.894 584.348,507.894 C 583.948,505.894 580.748,505.094 583.948,495.494 C 587.148,485.894 599.1266,479.09889 607.948,478.294 C 612.4385,477.88427 616.748,479.494 621.548,484.694 C 626.348,489.894 634.748,509.894 631.548,511.494 C 631.548,511.494 624.748,514.694 623.948,518.294 C 623.148,521.894 617.548,529.894 611.548,528.294 C 605.548,526.694 605.148,526.694 601.548,524.694 C 597.948,522.694 587.948,520.294 586.748,519.894 z" id="path3283" sodipodi:nodetypes="csssssssss"/>
  <path style="fill:#784482;fill-opacity:0.74551972;fill-rule:evenodd;stroke:#000000;stroke-width:3;stroke-linecap:butt;stroke-linejoin:miter;stroke-miterlimit:4;stroke-dasharray:none;stroke-opacity:1" d="M 609.548,521.894 C 609.548,521.894 611.148,520.294 614.348,517.494 C 617.548,514.694 618.7251,514.23318 619.948,512.294 C 621.021,510.59253 622.348,508.694 621.948,505.894 C 621.548,503.094 623.548,499.094 621.548,497.494 C 619.548,495.894 621.948,491.894 618.348,490.694 C 614.748,489.494 607.548,487.094 607.548,487.094 C 604.8813,487.76067 602.2147,488.42733 599.548,489.094 C 599.548,489.094 591.148,495.094 592.348,499.094 C 593.548,503.094 590.748,509.094 594.748,509.494 C 598.748,509.894 600.4589,509.53062 601.948,507.894 C 603.2502,506.46281 603.948,504.694 602.748,501.494 C 601.548,498.294 600.8678,497.90195 601.148,496.294 C 601.56,493.92962 602.748,489.894 605.948,489.894 C 609.148,489.894 614.748,488.694 615.148,490.694 C 615.548,492.694 617.2653,493.90904 617.548,495.494 C 618.1204,498.7033 616.348,506.294 616.348,506.294 C 616.8813,507.62733 617.4147,508.96067 617.948,510.294 C 617.948,510.294 618.748,513.894 615.548,513.094 C 612.348,512.294 607.948,511.094 605.948,511.094 C 603.948,511.094 603.548,515.094 605.148,515.894 C 606.748,516.694 609.948,522.694 609.548,521.894 z" id="path3285" sodipodi:nodetypes="csssssssssssssssssssss"/>
  <svg:switch style="font-size:22px;font-style:normal;font-variant:normal;font-weight:normal;font-stretch:normal;text-align:start;line-height:100%;writing-mode:lr-tb;text-anchor:start;fill:#000000;fill-opacity:1;stroke:none;stroke-width:1px;stroke-linecap:butt;stroke-linejoin:miter;stroke-opacity:1;font-family:Bitstream Charter;-inkscape-font-specification:Bitstream Charter"><svg:text xml:space="preserve" style="font-size:22px;font-style:normal;font-variant:normal;font-weight:normal;font-stretch:normal;text-align:start;line-height:100%;writing-mode:lr-tb;text-anchor:start;fill:#000000;fill-opacity:1;stroke:none;stroke-width:1px;stroke-linecap:butt;stroke-linejoin:miter;stroke-opacity:1;font-family:Bitstream Charter;-inkscape-font-specification:Bitstream Charter" x="5.1479754" y="203.894" id="text3287-ko" sodipodi:linespacing="100%" systemLanguage="ko"><svg:tspan sodipodi:role="line" id="tspan3289-ko" x="5.1479754" y="203.894">자기재생</svg:tspan><svg:tspan sodipodi:role="line" x="5.1479754" y="225.894" id="tspan3291-ko">줄기세포</svg:tspan></svg:text><svg:text xml:space="preserve" style="font-size:22px;font-style:normal;font-variant:normal;font-weight:normal;font-stretch:normal;text-align:start;line-height:100%;writing-mode:lr-tb;text-anchor:start;fill:#000000;fill-opacity:1;stroke:none;stroke-width:1px;stroke-linecap:butt;stroke-linejoin:miter;stroke-opacity:1;font-family:Bitstream Charter;-inkscape-font-specification:Bitstream Charter" x="5.1479754" y="203.894" id="text3287" sodipodi:linespacing="100%"><svg:tspan sodipodi:role="line" id="tspan3289" x="5.1479754" y="203.894">Célula </svg:tspan><svg:tspan sodipodi:role="line" x="5.1479754" y="225.894" id="tspan3291">madre</svg:tspan></svg:text></svg:switch>
  <svg:switch style="font-size:22px;font-style:normal;font-variant:normal;font-weight:normal;font-stretch:normal;text-align:start;line-height:100%;writing-mode:lr-tb;text-anchor:start;fill:#000000;fill-opacity:1;stroke:none;stroke-width:1px;stroke-linecap:butt;stroke-linejoin:miter;stroke-opacity:1;font-family:Bitstream Charter;-inkscape-font-specification:Bitstream Charter"><svg:text xml:space="preserve" style="font-size:22px;font-style:normal;font-variant:normal;font-weight:normal;font-stretch:normal;text-align:start;line-height:100%;writing-mode:lr-tb;text-anchor:start;fill:#000000;fill-opacity:1;stroke:none;stroke-width:1px;stroke-linecap:butt;stroke-linejoin:miter;stroke-opacity:1;font-family:Bitstream Charter;-inkscape-font-specification:Bitstream Charter" x="292.34805" y="21.493998" id="text3293-ko" sodipodi:linespacing="100%" systemLanguage="ko"><svg:tspan sodipodi:role="line" id="tspan3295-ko" x="292.34805" y="21.493998">B세포</svg:tspan></svg:text><svg:text xml:space="preserve" style="font-size:22px;font-style:normal;font-variant:normal;font-weight:normal;font-stretch:normal;text-align:start;line-height:100%;writing-mode:lr-tb;text-anchor:start;fill:#000000;fill-opacity:1;stroke:none;stroke-width:1px;stroke-linecap:butt;stroke-linejoin:miter;stroke-opacity:1;font-family:Bitstream Charter;-inkscape-font-specification:Bitstream Charter" x="292.34805" y="21.493998" id="text3293" sodipodi:linespacing="100%"><svg:tspan sodipodi:role="line" id="tspan3295" x="292.34805" y="21.493998">Linfocito B</svg:tspan></svg:text></svg:switch>
  <svg:switch style="font-size:22px;font-style:normal;font-variant:normal;font-weight:normal;font-stretch:normal;text-align:start;line-height:100%;writing-mode:lr-tb;text-anchor:start;fill:#000000;fill-opacity:1;stroke:none;stroke-width:1px;stroke-linecap:butt;stroke-linejoin:miter;stroke-opacity:1;font-family:Bitstream Charter;-inkscape-font-specification:Bitstream Charter"><svg:text xml:space="preserve" style="font-size:22px;font-style:normal;font-variant:normal;font-weight:normal;font-stretch:normal;text-align:start;line-height:100%;writing-mode:lr-tb;text-anchor:start;fill:#000000;fill-opacity:1;stroke:none;stroke-width:1px;stroke-linecap:butt;stroke-linejoin:miter;stroke-opacity:1;font-family:Bitstream Charter;-inkscape-font-specification:Bitstream Charter" x="292.34805" y="100.694" id="text3297-ko" sodipodi:linespacing="100%" systemLanguage="ko"><svg:tspan sodipodi:role="line" id="tspan3299-ko" x="292.34805" y="100.694">T세포</svg:tspan></svg:text><svg:text xml:space="preserve" style="font-size:22px;font-style:normal;font-variant:normal;font-weight:normal;font-stretch:normal;text-align:start;line-height:100%;writing-mode:lr-tb;text-anchor:start;fill:#000000;fill-opacity:1;stroke:none;stroke-width:1px;stroke-linecap:butt;stroke-linejoin:miter;stroke-opacity:1;font-family:Bitstream Charter;-inkscape-font-specification:Bitstream Charter" x="292.34805" y="100.694" id="text3297" sodipodi:linespacing="100%"><svg:tspan sodipodi:role="line" id="tspan3299" x="292.34805" y="100.694">Linfocito T</svg:tspan></svg:text></svg:switch>
  <svg:switch style="font-size:22px;font-style:normal;font-variant:normal;font-weight:normal;font-stretch:normal;text-align:start;line-height:100%;writing-mode:lr-tb;text-anchor:start;fill:#000000;fill-opacity:1;stroke:none;stroke-width:1px;stroke-linecap:butt;stroke-linejoin:miter;stroke-opacity:1;font-family:Bitstream Charter;-inkscape-font-specification:Bitstream Charter"><svg:text xml:space="preserve" style="font-size:22px;font-style:normal;font-variant:normal;font-weight:normal;font-stretch:normal;text-align:start;line-height:100%;writing-mode:lr-tb;text-anchor:start;fill:#000000;fill-opacity:1;stroke:none;stroke-width:1px;stroke-linecap:butt;stroke-linejoin:miter;stroke-opacity:1;font-family:Bitstream Charter;-inkscape-font-specification:Bitstream Charter" x="298.09006" y="186.29401" id="text3301-ko" sodipodi:linespacing="100%" systemLanguage="ko"><svg:tspan sodipodi:role="line" id="tspan3303-ko" x="298.09006" y="186.29401">NK세포</svg:tspan></svg:text><svg:text xml:space="preserve" style="font-size:22px;font-style:normal;font-variant:normal;font-weight:normal;font-stretch:normal;text-align:start;line-height:100%;writing-mode:lr-tb;text-anchor:start;fill:#000000;fill-opacity:1;stroke:none;stroke-width:1px;stroke-linecap:butt;stroke-linejoin:miter;stroke-opacity:1;font-family:Bitstream Charter;-inkscape-font-specification:Bitstream Charter" x="298.09006" y="186.29401" id="text3301" sodipodi:linespacing="100%"><svg:tspan sodipodi:role="line" id="tspan3303" x="298.09006" y="186.29401">Célula NK</svg:tspan></svg:text></svg:switch>
  <svg:switch style="font-size:22px;font-style:normal;font-variant:normal;font-weight:normal;font-stretch:normal;text-align:start;line-height:100%;writing-mode:lr-tb;text-anchor:start;fill:#000000;fill-opacity:1;stroke:none;stroke-width:1px;stroke-linecap:butt;stroke-linejoin:miter;stroke-opacity:1;font-family:Bitstream Charter;-inkscape-font-specification:Bitstream Charter"><svg:text xml:space="preserve" style="font-size:22px;font-style:normal;font-variant:normal;font-weight:normal;font-stretch:normal;text-align:start;line-height:100%;writing-mode:lr-tb;text-anchor:start;fill:#000000;fill-opacity:1;stroke:none;stroke-width:1px;stroke-linecap:butt;stroke-linejoin:miter;stroke-opacity:1;font-family:Bitstream Charter;-inkscape-font-specification:Bitstream Charter" x="210.74796" y="303.09399" id="text3305-ko" sodipodi:linespacing="100%" systemLanguage="ko"><svg:tspan sodipodi:role="line" id="tspan3307-ko" x="210.74796" y="303.09399">전구세포</svg:tspan></svg:text><svg:text xml:space="preserve" style="font-size:22px;font-style:normal;font-variant:normal;font-weight:normal;font-stretch:normal;text-align:start;line-height:100%;writing-mode:lr-tb;text-anchor:start;fill:#000000;fill-opacity:1;stroke:none;stroke-width:1px;stroke-linecap:butt;stroke-linejoin:miter;stroke-opacity:1;font-family:Bitstream Charter;-inkscape-font-specification:Bitstream Charter" x="210.74796" y="303.09399" id="text3305" sodipodi:linespacing="100%"><svg:tspan sodipodi:role="line" id="tspan3307" x="210.74796" y="303.09399">Célula bipotencial</svg:tspan></svg:text></svg:switch>
  <svg:switch style="font-size:22px;font-style:normal;font-variant:normal;font-weight:normal;font-stretch:normal;text-align:start;line-height:100%;writing-mode:lr-tb;text-anchor:start;fill:#000000;fill-opacity:1;stroke:none;stroke-width:1px;stroke-linecap:butt;stroke-linejoin:miter;stroke-opacity:1;font-family:Bitstream Charter;-inkscape-font-specification:Bitstream Charter"><svg:text xml:space="preserve" style="font-size:22px;font-style:normal;font-variant:normal;font-weight:normal;font-stretch:normal;text-align:start;line-height:100%;writing-mode:lr-tb;text-anchor:start;fill:#000000;fill-opacity:1;stroke:none;stroke-width:1px;stroke-linecap:butt;stroke-linejoin:miter;stroke-opacity:1;font-family:Bitstream Charter;-inkscape-font-specification:Bitstream Charter" x="434.74796" y="416.694" id="text3309-ko" sodipodi:linespacing="100%" systemLanguage="ko"><svg:tspan sodipodi:role="line" id="tspan3311-ko" x="434.74796" y="416.694">단핵구</svg:tspan></svg:text><svg:text xml:space="preserve" style="font-size:22px;font-style:normal;font-variant:normal;font-weight:normal;font-stretch:normal;text-align:start;line-height:100%;writing-mode:lr-tb;text-anchor:start;fill:#000000;fill-opacity:1;stroke:none;stroke-width:1px;stroke-linecap:butt;stroke-linejoin:miter;stroke-opacity:1;font-family:Bitstream Charter;-inkscape-font-specification:Bitstream Charter" x="434.74796" y="416.694" id="text3309" sodipodi:linespacing="100%"><svg:tspan sodipodi:role="line" id="tspan3311" x="434.74796" y="416.694">Monocitos</svg:tspan></svg:text></svg:switch>
  <svg:switch style="font-size:22px;font-style:normal;font-variant:normal;font-weight:normal;font-stretch:normal;text-align:start;line-height:100%;writing-mode:lr-tb;text-anchor:start;fill:#000000;fill-opacity:1;stroke:none;stroke-width:1px;stroke-linecap:butt;stroke-linejoin:miter;stroke-opacity:1;font-family:Bitstream Charter;-inkscape-font-specification:Bitstream Charter"><svg:text xml:space="preserve" style="font-size:22px;font-style:normal;font-variant:normal;font-weight:normal;font-stretch:normal;text-align:start;line-height:100%;writing-mode:lr-tb;text-anchor:start;fill:#000000;fill-opacity:1;stroke:none;stroke-width:1px;stroke-linecap:butt;stroke-linejoin:miter;stroke-opacity:1;font-family:Bitstream Charter;-inkscape-font-specification:Bitstream Charter" x="436.34805" y="585.49402" id="text3313-ko" sodipodi:linespacing="100%" systemLanguage="ko"><svg:tspan sodipodi:role="line" id="tspan3315-ko" x="436.34805" y="585.49402">비만세포</svg:tspan></svg:text><svg:text xml:space="preserve" style="font-size:22px;font-style:normal;font-variant:normal;font-weight:normal;font-stretch:normal;text-align:start;line-height:100%;writing-mode:lr-tb;text-anchor:start;fill:#000000;fill-opacity:1;stroke:none;stroke-width:1px;stroke-linecap:butt;stroke-linejoin:miter;stroke-opacity:1;font-family:Bitstream Charter;-inkscape-font-specification:Bitstream Charter" x="436.34805" y="585.49402" id="text3313" sodipodi:linespacing="100%"><svg:tspan sodipodi:role="line" id="tspan3315" x="436.34805" y="585.49402">Célula cebada</svg:tspan></svg:text></svg:switch>
  <svg:switch style="font-size:22px;font-style:normal;font-variant:normal;font-weight:normal;font-stretch:normal;text-align:start;line-height:100%;writing-mode:lr-tb;text-anchor:start;fill:#000000;fill-opacity:1;stroke:none;stroke-width:1px;stroke-linecap:butt;stroke-linejoin:miter;stroke-opacity:1;font-family:Bitstream Charter;-inkscape-font-specification:Bitstream Charter"><svg:text xml:space="preserve" style="font-size:22px;font-style:normal;font-variant:normal;font-weight:normal;font-stretch:normal;text-align:start;line-height:100%;writing-mode:lr-tb;text-anchor:start;fill:#000000;fill-opacity:1;stroke:none;stroke-width:1px;stroke-linecap:butt;stroke-linejoin:miter;stroke-opacity:1;font-family:Bitstream Charter;-inkscape-font-specification:Bitstream Charter" x="665.948" y="501.49402" id="text3317-ko" sodipodi:linespacing="100%" systemLanguage="ko"><svg:tspan sodipodi:role="line" id="tspan3319-ko" x="665.948" y="501.49402">호중구</svg:tspan></svg:text><svg:text xml:space="preserve" style="font-size:22px;font-style:normal;font-variant:normal;font-weight:normal;font-stretch:normal;text-align:start;line-height:100%;writing-mode:lr-tb;text-anchor:start;fill:#000000;fill-opacity:1;stroke:none;stroke-width:1px;stroke-linecap:butt;stroke-linejoin:miter;stroke-opacity:1;font-family:Bitstream Charter;-inkscape-font-specification:Bitstream Charter" x="665.948" y="501.49402" id="text3317" sodipodi:linespacing="100%"><svg:tspan sodipodi:role="line" id="tspan3319" x="665.948" y="501.49402">Neutrófilo</svg:tspan></svg:text></svg:switch>
  <svg:switch style="font-size:22px;font-style:normal;font-variant:normal;font-weight:normal;font-stretch:normal;text-align:start;line-height:100%;writing-mode:lr-tb;text-anchor:start;fill:#000000;fill-opacity:1;stroke:none;stroke-width:1px;stroke-linecap:butt;stroke-linejoin:miter;stroke-opacity:1;font-family:Bitstream Charter;-inkscape-font-specification:Bitstream Charter"><svg:text xml:space="preserve" style="font-size:22px;font-style:normal;font-variant:normal;font-weight:normal;font-stretch:normal;text-align:start;line-height:100%;writing-mode:lr-tb;text-anchor:start;fill:#000000;fill-opacity:1;stroke:none;stroke-width:1px;stroke-linecap:butt;stroke-linejoin:miter;stroke-opacity:1;font-family:Bitstream Charter;-inkscape-font-specification:Bitstream Charter" x="669.948" y="355.89401" id="text3321-ko" sodipodi:linespacing="100%" systemLanguage="ko"><svg:tspan sodipodi:role="line" id="tspan3323-ko" x="669.948" y="355.89401">대식세포</svg:tspan></svg:text><svg:text xml:space="preserve" style="font-size:22px;font-style:normal;font-variant:normal;font-weight:normal;font-stretch:normal;text-align:start;line-height:100%;writing-mode:lr-tb;text-anchor:start;fill:#000000;fill-opacity:1;stroke:none;stroke-width:1px;stroke-linecap:butt;stroke-linejoin:miter;stroke-opacity:1;font-family:Bitstream Charter;-inkscape-font-specification:Bitstream Charter" x="669.948" y="355.89401" id="text3321" sodipodi:linespacing="100%"><svg:tspan sodipodi:role="line" id="tspan3323" x="669.948" y="355.89401">Macrófago</svg:tspan></svg:text></svg:switch>
  <svg:switch style="font-size:22px;font-style:normal;font-variant:normal;font-weight:normal;font-stretch:normal;text-align:start;line-height:100%;writing-mode:lr-tb;text-anchor:start;fill:#000000;fill-opacity:1;stroke:none;stroke-width:1px;stroke-linecap:butt;stroke-linejoin:miter;stroke-opacity:1;font-family:Bitstream Charter;-inkscape-font-specification:Bitstream Charter"><svg:text xml:space="preserve" style="font-size:22px;font-style:normal;font-variant:normal;font-weight:normal;font-stretch:normal;text-align:start;line-height:100%;writing-mode:lr-tb;text-anchor:start;fill:#000000;fill-opacity:1;stroke:none;stroke-width:1px;stroke-linecap:butt;stroke-linejoin:miter;stroke-opacity:1;font-family:Bitstream Charter;-inkscape-font-specification:Bitstream Charter" x="671.54797" y="246.29401" id="text3325-ko" sodipodi:linespacing="100%" systemLanguage="ko"><svg:tspan sodipodi:role="line" id="tspan3327-ko" x="671.54797" y="246.29401">수지상세포</svg:tspan></svg:text><svg:text xml:space="preserve" style="font-size:22px;font-style:normal;font-variant:normal;font-weight:normal;font-stretch:normal;text-align:start;line-height:100%;writing-mode:lr-tb;text-anchor:start;fill:#000000;fill-opacity:1;stroke:none;stroke-width:1px;stroke-linecap:butt;stroke-linejoin:miter;stroke-opacity:1;font-family:Bitstream Charter;-inkscape-font-specification:Bitstream Charter" x="671.54797" y="246.29401" id="text3325" sodipodi:linespacing="100%"><svg:tspan sodipodi:role="line" id="tspan3327" x="671.54797" y="246.29401">Célula dendrítica</svg:tspan></svg:text></svg:switch>
  <svg:switch style="font-size:25px;font-style:normal;font-variant:normal;font-weight:bold;font-stretch:normal;text-align:start;line-height:100%;writing-mode:lr-tb;text-anchor:start;fill:#000000;fill-opacity:1;stroke:none;stroke-width:1px;stroke-linecap:butt;stroke-linejoin:miter;stroke-opacity:1;font-family:Bitstream Charter;-inkscape-font-specification:Bitstream Charter Bold"><svg:text xml:space="preserve" style="font-size:25px;font-style:normal;font-variant:normal;font-weight:bold;font-stretch:normal;text-align:start;line-height:100%;writing-mode:lr-tb;text-anchor:start;fill:#000000;fill-opacity:1;stroke:none;stroke-width:1px;stroke-linecap:butt;stroke-linejoin:miter;stroke-opacity:1;font-family:Bitstream Charter;-inkscape-font-specification:Bitstream Charter Bold" x="569.14795" y="148.694" id="text3329-ko" sodipodi:linespacing="100%" systemLanguage="ko"><svg:tspan sodipodi:role="line" id="tspan3331-ko" x="569.14795" y="148.694">식세포</svg:tspan></svg:text><svg:text xml:space="preserve" style="font-size:25px;font-style:normal;font-variant:normal;font-weight:bold;font-stretch:normal;text-align:start;line-height:100%;writing-mode:lr-tb;text-anchor:start;fill:#000000;fill-opacity:1;stroke:none;stroke-width:1px;stroke-linecap:butt;stroke-linejoin:miter;stroke-opacity:1;font-family:Bitstream Charter;-inkscape-font-specification:Bitstream Charter Bold" x="569.14795" y="148.694" id="text3329" sodipodi:linespacing="100%"><svg:tspan sodipodi:role="line" id="tspan3331" x="569.14795" y="148.694">Fagocitos</svg:tspan></svg:text></svg:switch>
  <path sodipodi:type="arc" style="fill:#784482;fill-opacity:0.74551972;fill-rule:nonzero;stroke:#000000;stroke-width:3;stroke-linecap:round;stroke-linejoin:round;stroke-miterlimit:4;stroke-dasharray:none;stroke-opacity:1" id="path3339" sodipodi:cx="1194" sodipodi:cy="420.20001" sodipodi:rx="5.1999998" sodipodi:ry="3.5999999" d="M 1199.2,420.20001 A 5.1999998,3.5999999 0 1 1 1188.8,420.20001 A 5.1999998,3.5999999 0 1 1 1199.2,420.20001 z" transform="translate(-729.052,133.09399)"/>
  <path sodipodi:type="arc" style="fill:#784482;fill-opacity:0.74551972;fill-rule:nonzero;stroke:#000000;stroke-width:3;stroke-linecap:round;stroke-linejoin:round;stroke-miterlimit:4;stroke-dasharray:none;stroke-opacity:1" id="path3343" sodipodi:cx="1194" sodipodi:cy="420.20001" sodipodi:rx="5.1999998" sodipodi:ry="3.5999999" d="M 1199.2,420.20001 A 5.1999998,3.5999999 0 1 1 1188.8,420.20001 A 5.1999998,3.5999999 0 1 1 1199.2,420.20001 z" transform="translate(-716.652,117.49398)"/>
  <path sodipodi:type="arc" style="fill:#784482;fill-opacity:0.74551972;fill-rule:nonzero;stroke:#000000;stroke-width:3;stroke-linecap:round;stroke-linejoin:round;stroke-miterlimit:4;stroke-dasharray:none;stroke-opacity:1" id="path3345" sodipodi:cx="1194" sodipodi:cy="420.20001" sodipodi:rx="5.1999998" sodipodi:ry="3.5999999" d="M 1199.2,420.20001 A 5.1999998,3.5999999 0 1 1 1188.8,420.20001 A 5.1999998,3.5999999 0 1 1 1199.2,420.20001 z" transform="translate(-732.752,109.394)"/>
  <path sodipodi:type="arc" style="fill:#784482;fill-opacity:0.74551972;fill-rule:nonzero;stroke:#000000;stroke-width:3;stroke-linecap:round;stroke-linejoin:round;stroke-miterlimit:4;stroke-dasharray:none;stroke-opacity:1" id="path3347" sodipodi:cx="1194" sodipodi:cy="420.20001" sodipodi:rx="5.1999998" sodipodi:ry="3.5999999" d="M 1199.2,420.20001 A 5.1999998,3.5999999 0 1 1 1188.8,420.20001 A 5.1999998,3.5999999 0 1 1 1199.2,420.20001 z" transform="translate(-734.752,130.59398)"/>
  <path sodipodi:type="arc" style="fill:#784482;fill-opacity:0.74551972;fill-rule:nonzero;stroke:#000000;stroke-width:3;stroke-linecap:round;stroke-linejoin:round;stroke-miterlimit:4;stroke-dasharray:none;stroke-opacity:1" id="path3349" sodipodi:cx="1194" sodipodi:cy="420.20001" sodipodi:rx="5.1999998" sodipodi:ry="3.5999999" d="M 1199.2,420.20001 A 5.1999998,3.5999999 0 1 1 1188.8,420.20001 A 5.1999998,3.5999999 0 1 1 1199.2,420.20001 z" transform="translate(-735.552,116.19398)"/>
  <path sodipodi:type="arc" style="fill:#784482;fill-opacity:0.74551972;fill-rule:nonzero;stroke:#000000;stroke-width:3;stroke-linecap:round;stroke-linejoin:round;stroke-miterlimit:4;stroke-dasharray:none;stroke-opacity:1" id="path3351" sodipodi:cx="1194" sodipodi:cy="420.20001" sodipodi:rx="5.1999998" sodipodi:ry="3.5999999" d="M 1199.2,420.20001 A 5.1999998,3.5999999 0 1 1 1188.8,420.20001 A 5.1999998,3.5999999 0 1 1 1199.2,420.20001 z" transform="translate(-725.352,113.59399)"/>
  <path sodipodi:type="arc" style="fill:#784482;fill-opacity:0.74551972;fill-rule:nonzero;stroke:#000000;stroke-width:3;stroke-linecap:round;stroke-linejoin:round;stroke-miterlimit:4;stroke-dasharray:none;stroke-opacity:1" id="path3353" sodipodi:cx="1194" sodipodi:cy="420.20001" sodipodi:rx="5.1999998" sodipodi:ry="3.5999999" d="M 1199.2,420.20001 A 5.1999998,3.5999999 0 1 1 1188.8,420.20001 A 5.1999998,3.5999999 0 1 1 1199.2,420.20001 z" transform="translate(-727.352,134.79398)"/>
  <path sodipodi:type="arc" style="fill:#784482;fill-opacity:0.74551972;fill-rule:nonzero;stroke:#000000;stroke-width:3;stroke-linecap:round;stroke-linejoin:round;stroke-miterlimit:4;stroke-dasharray:none;stroke-opacity:1" id="path3355" sodipodi:cx="1194" sodipodi:cy="420.20001" sodipodi:rx="5.1999998" sodipodi:ry="3.5999999" d="M 1199.2,420.20001 A 5.1999998,3.5999999 0 1 1 1188.8,420.20001 A 5.1999998,3.5999999 0 1 1 1199.2,420.20001 z" transform="translate(-728.152,120.39398)"/>
  <path sodipodi:type="arc" style="fill:#784482;fill-opacity:0.74551972;fill-rule:nonzero;stroke:#000000;stroke-width:3;stroke-linecap:round;stroke-linejoin:round;stroke-miterlimit:4;stroke-dasharray:none;stroke-opacity:1" id="path3357" sodipodi:cx="1194" sodipodi:cy="420.20001" sodipodi:rx="5.1999998" sodipodi:ry="3.5999999" d="M 1199.2,420.20001 A 5.1999998,3.5999999 0 1 1 1188.8,420.20001 A 5.1999998,3.5999999 0 1 1 1199.2,420.20001 z" transform="translate(-718.352,109.394)"/>
  <path sodipodi:type="arc" style="fill:#784482;fill-opacity:0.74551972;fill-rule:nonzero;stroke:#000000;stroke-width:3;stroke-linecap:round;stroke-linejoin:round;stroke-miterlimit:4;stroke-dasharray:none;stroke-opacity:1" id="path3359" sodipodi:cx="1194" sodipodi:cy="420.20001" sodipodi:rx="5.1999998" sodipodi:ry="3.5999999" d="M 1199.2,420.20001 A 5.1999998,3.5999999 0 1 1 1188.8,420.20001 A 5.1999998,3.5999999 0 1 1 1199.2,420.20001 z" transform="translate(-720.352,130.59398)"/>
  <path sodipodi:type="arc" style="fill:#784482;fill-opacity:0.74551972;fill-rule:nonzero;stroke:#000000;stroke-width:3;stroke-linecap:round;stroke-linejoin:round;stroke-miterlimit:4;stroke-dasharray:none;stroke-opacity:1" id="path3361" sodipodi:cx="1194" sodipodi:cy="420.20001" sodipodi:rx="5.1999998" sodipodi:ry="3.5999999" d="M 1199.2,420.20001 A 5.1999998,3.5999999 0 1 1 1188.8,420.20001 A 5.1999998,3.5999999 0 1 1 1199.2,420.20001 z" transform="translate(-721.152,116.19398)"/>
  <path sodipodi:type="arc" style="fill:#784482;fill-opacity:0.74551972;fill-rule:nonzero;stroke:#000000;stroke-width:3;stroke-linecap:round;stroke-linejoin:round;stroke-miterlimit:4;stroke-dasharray:none;stroke-opacity:1" id="path3363" sodipodi:cx="1194" sodipodi:cy="420.20001" sodipodi:rx="5.1999998" sodipodi:ry="3.5999999" d="M 1199.2,420.20001 A 5.1999998,3.5999999 0 1 1 1188.8,420.20001 A 5.1999998,3.5999999 0 1 1 1199.2,420.20001 z" transform="translate(-710.952,113.59399)"/>
  <rect style="fill:#86c3e0;fill-opacity:0.17562723;fill-rule:nonzero;stroke:none;stroke-width:3;stroke-linecap:round;stroke-linejoin:round;stroke-miterlimit:4;stroke-dasharray:none;stroke-opacity:1" id="rect3415" width="414.40002" height="441.59998" x="430.31323" y="157.6447"/>
  <path sodipodi:type="arc" style="fill:#784482;fill-opacity:0.74551972;fill-rule:nonzero;stroke:#000000;stroke-width:3;stroke-linecap:round;stroke-linejoin:round;stroke-miterlimit:4;stroke-dasharray:none;stroke-opacity:1" id="path3365" sodipodi:cx="1194" sodipodi:cy="420.20001" sodipodi:rx="5.1999998" sodipodi:ry="3.5999999" d="M 1199.2,420.20001 A 5.1999998,3.5999999 0 1 1 1188.8,420.20001 A 5.1999998,3.5999999 0 1 1 1199.2,420.20001 z" transform="translate(-712.952,134.79398)"/>
  <path sodipodi:type="arc" style="fill:#784482;fill-opacity:0.74551972;fill-rule:nonzero;stroke:#000000;stroke-width:3;stroke-linecap:round;stroke-linejoin:round;stroke-miterlimit:4;stroke-dasharray:none;stroke-opacity:1" id="path3367" sodipodi:cx="1194" sodipodi:cy="420.20001" sodipodi:rx="5.1999998" sodipodi:ry="3.5999999" d="M 1199.2,420.20001 A 5.1999998,3.5999999 0 1 1 1188.8,420.20001 A 5.1999998,3.5999999 0 1 1 1199.2,420.20001 z" transform="translate(-713.752,120.39398)"/>
  <path style="fill:none;fill-rule:evenodd;stroke:#000000;stroke-width:1px;stroke-linecap:butt;stroke-linejoin:miter;stroke-opacity:1" d="M 66.748,303.094 L 144.348,303.094" id="path3369" inkscape:connector-type="polyline"/>
  <path style="fill:none;fill-rule:evenodd;stroke:#000000;stroke-width:1px;stroke-linecap:butt;stroke-linejoin:miter;stroke-opacity:1" d="M 177.948,335.094 L 177.948,387.094" id="path3371" inkscape:connector-type="polyline"/>
  <path style="fill:none;fill-rule:evenodd;stroke:#000000;stroke-width:1px;stroke-linecap:butt;stroke-linejoin:miter;stroke-opacity:1" d="M 179.548,207.094 L 178.748,267.094" id="path3373" inkscape:connector-type="polyline"/>
  <path style="fill:none;fill-rule:evenodd;stroke:#000000;stroke-width:1px;stroke-linecap:butt;stroke-linejoin:miter;stroke-opacity:1" d="M 230.748,32.694 L 195.548,149.494" id="path3375" inkscape:connector-type="polyline"/>
  <path style="fill:none;fill-rule:evenodd;stroke:#000000;stroke-width:1px;stroke-linecap:butt;stroke-linejoin:miter;stroke-opacity:1" d="M 228.348,112.694 L 200.348,157.494" id="path3377" inkscape:connector-type="polyline"/>
  <path style="fill:none;fill-rule:evenodd;stroke:#000000;stroke-width:1px;stroke-linecap:butt;stroke-linejoin:miter;stroke-opacity:1" d="M 231.548,183.894 L 201.148,182.294" id="path3379" inkscape:connector-type="polyline"/>
  <path style="fill:none;fill-rule:evenodd;stroke:#000000;stroke-width:1px;stroke-linecap:butt;stroke-linejoin:miter;stroke-opacity:1" d="M 453.948,300.694 L 201.948,402.294" id="path3381" inkscape:connector-type="polyline"/>
  <path style="fill:none;fill-rule:evenodd;stroke:#000000;stroke-width:1px;stroke-linecap:butt;stroke-linejoin:miter;stroke-opacity:1" d="M 213.148,424.694 L 569.148,497.494" id="path3383" inkscape:connector-type="polyline"/>
  <path style="fill:none;fill-rule:evenodd;stroke:#000000;stroke-width:1px;stroke-linecap:butt;stroke-linejoin:miter;stroke-opacity:1" d="M 422.748,529.494 L 202.748,456.694" id="path3385" inkscape:connector-type="polyline"/>
  <path style="fill:none;fill-rule:evenodd;stroke:#000000;stroke-width:1px;stroke-linecap:butt;stroke-linejoin:miter;stroke-opacity:1" d="M 579.548,265.494 L 516.348,267.094" id="path3387" inkscape:connector-type="polyline"/>
  <path style="fill:none;fill-rule:evenodd;stroke:#000000;stroke-width:1px;stroke-linecap:butt;stroke-linejoin:miter;stroke-opacity:1" d="M 569.1882,340.98517 L 515.548,338.294" id="path3389" inkscape:connector-type="polyline" sodipodi:nodetypes="cc"/>
  <path sodipodi:type="spiral" style="fill:none;fill-rule:evenodd;stroke:#000000;stroke-width:1px;stroke-linecap:butt;stroke-linejoin:miter;stroke-opacity:1" id="path3391" sodipodi:cx="1121.6" sodipodi:cy="147" sodipodi:expansion="1" sodipodi:revolution="3.5258944" sodipodi:radius="13.606486" sodipodi:argument="-20.434162" sodipodi:t0="0.81935668" d="M 1114.3206,138.55599 C 1118.9193,134.1279 1126.4219,134.53038 1130.7747,139.0907 C 1135.545,144.0884 1135.0968,152.20861 1130.1392,156.90543 C 1127.3343,159.56275 1123.4183,160.85556 1119.5816,160.45595" transform="matrix(0.4855756,-0.8741947,0.8741947,0.4855756,-629.89468,1166.207)"/>
  <path style="fill:none;fill-rule:evenodd;stroke:#000000;stroke-width:1px;stroke-linecap:butt;stroke-linejoin:miter;stroke-opacity:1" d="M 183.6147,383.4726 L 176.1948,391.74697 L 171.3773,383.40484" id="path3393"/>
  <path style="fill:none;fill-rule:evenodd;stroke:#000000;stroke-width:1px;stroke-linecap:butt;stroke-linejoin:miter;stroke-opacity:1" d="M 35.9201,253.8637 L 28.6695,262.28681 L 23.6837,254.04408" id="path3395"/>
  <path style="fill:none;fill-rule:evenodd;stroke:#000000;stroke-width:1px;stroke-linecap:butt;stroke-linejoin:miter;stroke-opacity:1" d="M 172.348,345.494 L 177.948,335.894 L 184.348,343.094" id="path3397"/>
  <path style="fill:none;fill-rule:evenodd;stroke:#000000;stroke-width:1px;stroke-linecap:butt;stroke-linejoin:miter;stroke-opacity:1" d="M 172.748,215.094 L 178.348,205.494 L 184.748,212.694" id="path3399"/>
  <path style="fill:none;fill-rule:evenodd;stroke:#000000;stroke-width:1px;stroke-linecap:butt;stroke-linejoin:miter;stroke-opacity:1" d="M 417.1715,522.38411 L 425.3562,529.90271 L 416.9569,534.61984" id="path3401"/>
  <path style="fill:none;fill-rule:evenodd;stroke:#000000;stroke-width:1px;stroke-linecap:butt;stroke-linejoin:miter;stroke-opacity:1" d="M 561.163,491.37613 L 569.3477,498.89473 L 560.9484,503.61186" id="path3403" inkscape:transform-center-x="118.4" inkscape:transform-center-y="-12"/>
  <path style="fill:none;fill-rule:evenodd;stroke:#000000;stroke-width:1px;stroke-linecap:butt;stroke-linejoin:miter;stroke-opacity:1" d="M 564.363,332.97613 L 572.5477,340.49473 L 564.1484,345.21186" id="path3405" inkscape:transform-center-x="12.8" inkscape:transform-center-y="36"/>
  <path style="fill:none;fill-rule:evenodd;stroke:#000000;stroke-width:1px;stroke-linecap:butt;stroke-linejoin:miter;stroke-opacity:1" d="M 573.963,261.77613 L 582.1477,269.29473 L 573.7484,274.01186" id="path3407" inkscape:transform-center-x="10.4" inkscape:transform-center-y="36"/>
  <path style="fill:none;fill-rule:evenodd;stroke:#000000;stroke-width:1px;stroke-linecap:butt;stroke-linejoin:miter;stroke-opacity:1" d="M 224.2409,37.22421 L 234.418,32.75819 L 235.3553,42.345711" id="path3409"/>
  <path style="fill:none;fill-rule:evenodd;stroke:#000000;stroke-width:1px;stroke-linecap:butt;stroke-linejoin:miter;stroke-opacity:1" d="M 217.233,117.53274 L 227.1073,112.43194 L 228.6491,121.94101" id="path3411"/>
  <path style="fill:none;fill-rule:evenodd;stroke:#000000;stroke-width:1px;stroke-linecap:butt;stroke-linejoin:miter;stroke-opacity:1" d="M 225.963,177.77614 L 234.1477,185.29474 L 225.7484,190.01187" id="path3413"/>
  <path style="fill:none;fill-rule:evenodd;stroke:#000000;stroke-width:1px;stroke-linecap:butt;stroke-linejoin:miter;stroke-opacity:1" d="M 446.328,296.31748 L 456.711,300.28131 L 450.648,307.76724" id="path3417" inkscape:transform-center-x="-0.63065" inkscape:transform-center-y="39.693665"/>
</svg>
