<?xml version="1.0" encoding="UTF-8" standalone="no"?>
<!-- Created with Inkscape (http://www.inkscape.org/) -->

<svg
   xmlns:dc="http://purl.org/dc/elements/1.1/"
   xmlns:cc="http://creativecommons.org/ns#"
   xmlns:rdf="http://www.w3.org/1999/02/22-rdf-syntax-ns#"
   xmlns:svg="http://www.w3.org/2000/svg"
   xmlns="http://www.w3.org/2000/svg"
   xmlns:xlink="http://www.w3.org/1999/xlink"
   xmlns:sodipodi="http://sodipodi.sourceforge.net/DTD/sodipodi-0.dtd"
   xmlns:inkscape="http://www.inkscape.org/namespaces/inkscape"
   width="729.24207"
   height="919.34442"
   id="svg5309"
   version="1.1"
   inkscape:version="0.48.4 r9939"
   sodipodi:docname="Nuovo documento 10">
  <defs
     id="defs5311">
    <linearGradient
       inkscape:collect="always"
       xlink:href="#linearGradient3856"
       id="linearGradient4271"
       gradientUnits="userSpaceOnUse"
       x1="19.104183"
       y1="662.66486"
       x2="283.5744"
       y2="344.09341" />
    <linearGradient
       id="linearGradient3856"
       inkscape:collect="always">
      <stop
         id="stop3858"
         offset="0"
         style="stop-color:#007bff;stop-opacity:1;" />
      <stop
         id="stop3860"
         offset="1"
         style="stop-color:#ffffff;stop-opacity:1" />
    </linearGradient>
    <linearGradient
       inkscape:collect="always"
       xlink:href="#linearGradient3816"
       id="linearGradient4273"
       gradientUnits="userSpaceOnUse"
       x1="101.32879"
       y1="638.48877"
       x2="343.77121"
       y2="344.20309" />
    <linearGradient
       inkscape:collect="always"
       id="linearGradient3816">
      <stop
         style="stop-color:#ffc900;stop-opacity:1;"
         offset="0"
         id="stop3818" />
      <stop
         style="stop-color:#ffffff;stop-opacity:1"
         offset="1"
         id="stop3820" />
    </linearGradient>
    <linearGradient
       inkscape:collect="always"
       xlink:href="#linearGradient3850"
       id="linearGradient4275"
       gradientUnits="userSpaceOnUse"
       gradientTransform="matrix(-1,0,0,1,16.30397,0)"
       x1="19.104183"
       y1="662.66486"
       x2="283.5744"
       y2="344.09341" />
    <linearGradient
       id="linearGradient3850"
       inkscape:collect="always">
      <stop
         id="stop3852"
         offset="0"
         style="stop-color:#007bff;stop-opacity:1;" />
      <stop
         id="stop3854"
         offset="1"
         style="stop-color:#ffffff;stop-opacity:1" />
    </linearGradient>
    <linearGradient
       inkscape:collect="always"
       xlink:href="#linearGradient3844"
       id="linearGradient4277"
       gradientUnits="userSpaceOnUse"
       gradientTransform="matrix(-1,0,0,1,16.30397,0)"
       x1="101.32879"
       y1="638.48877"
       x2="343.77121"
       y2="344.20309" />
    <linearGradient
       id="linearGradient3844"
       inkscape:collect="always">
      <stop
         id="stop3846"
         offset="0"
         style="stop-color:#ffc900;stop-opacity:1;" />
      <stop
         id="stop3848"
         offset="1"
         style="stop-color:#ffffff;stop-opacity:1" />
    </linearGradient>
  </defs>
  <sodipodi:namedview
     id="base"
     pagecolor="#ffffff"
     bordercolor="#666666"
     borderopacity="1.0"
     inkscape:pageopacity="0.0"
     inkscape:pageshadow="2"
     inkscape:zoom="0.35"
     inkscape:cx="371.05164"
     inkscape:cy="548.25035"
     inkscape:document-units="px"
     inkscape:current-layer="layer1"
     showgrid="false"
     fit-margin-top="0"
     fit-margin-left="0"
     fit-margin-right="0"
     fit-margin-bottom="0"
     inkscape:window-width="1317"
     inkscape:window-height="744"
     inkscape:window-x="49"
     inkscape:window-y="24"
     inkscape:window-maximized="1" />
  <metadata
     id="metadata5314">
    <rdf:RDF>
      <cc:Work
         rdf:about="">
        <dc:format>image/svg+xml</dc:format>
        <dc:type
           rdf:resource="http://purl.org/dc/dcmitype/StillImage" />
        <dc:title></dc:title>
      </cc:Work>
    </rdf:RDF>
  </metadata>
  <g
     inkscape:label="Livello 1"
     inkscape:groupmode="layer"
     id="layer1"
     transform="translate(-3.9483578,-46.982395)">
    <g
       id="g4131"
       transform="translate(347.41943,-276.01693)">
      <g
         id="g4133"
         transform="matrix(-1,0,0,1,41.58912,0)">
        <path
           inkscape:connector-curvature="0"
           id="path4135"
           d="M 140.87077,629.06012 97.07697,592.9466"
           style="fill:#ff3a00;fill-opacity:1;stroke:#ff3a00;stroke-width:1.62864029;stroke-linecap:butt;stroke-linejoin:miter;stroke-miterlimit:4;stroke-opacity:1;stroke-dasharray:4.88592103, 4.88592103;stroke-dashoffset:0" />
        <path
           style="fill:#ff3a00;fill-opacity:1;stroke:#ff3a00;stroke-width:2;stroke-linecap:butt;stroke-linejoin:miter;stroke-miterlimit:4;stroke-opacity:1;stroke-dasharray:6, 6;stroke-dashoffset:0"
           d="M 204.32647,536.41652 159.97841,590.1961"
           id="path4137"
           inkscape:connector-curvature="0" />
        <path
           inkscape:connector-curvature="0"
           id="path4139"
           d="M 304.32647,414.41652 259.97841,468.1961"
           style="fill:#ff3a00;fill-opacity:1;stroke:#ff3a00;stroke-width:2;stroke-linecap:butt;stroke-linejoin:miter;stroke-miterlimit:4;stroke-opacity:1;stroke-dasharray:6, 6;stroke-dashoffset:0" />
        <path
           inkscape:connector-curvature="0"
           id="path4141"
           d="M 178.32647,514.41652 133.97841,568.1961"
           style="fill:#ff3a00;fill-opacity:1;stroke:#ff3a00;stroke-width:2;stroke-linecap:butt;stroke-linejoin:miter;stroke-miterlimit:4;stroke-opacity:1;stroke-dasharray:6, 6;stroke-dashoffset:0" />
        <path
           style="fill:#ff3a00;fill-opacity:1;stroke:#ff3a00;stroke-width:2;stroke-linecap:butt;stroke-linejoin:miter;stroke-miterlimit:4;stroke-opacity:1;stroke-dasharray:6, 6;stroke-dashoffset:0"
           d="M 278.32647,392.41652 233.97841,446.1961"
           id="path4143"
           inkscape:connector-curvature="0" />
      </g>
      <g
         id="g4145">
        <path
           style="fill:#ff3a00;fill-opacity:1;stroke:#ff3a00;stroke-width:1.62864029;stroke-linecap:butt;stroke-linejoin:miter;stroke-miterlimit:4;stroke-opacity:1;stroke-dasharray:4.88592103, 4.88592103;stroke-dashoffset:0"
           d="M 140.87077,629.06012 97.07697,592.9466"
           id="path4147"
           inkscape:connector-curvature="0" />
        <path
           inkscape:connector-curvature="0"
           id="path4149"
           d="M 204.32647,536.41652 159.97841,590.1961"
           style="fill:#ff3a00;fill-opacity:1;stroke:#ff3a00;stroke-width:2;stroke-linecap:butt;stroke-linejoin:miter;stroke-miterlimit:4;stroke-opacity:1;stroke-dasharray:6, 6;stroke-dashoffset:0" />
        <path
           style="fill:#ff3a00;fill-opacity:1;stroke:#ff3a00;stroke-width:2;stroke-linecap:butt;stroke-linejoin:miter;stroke-miterlimit:4;stroke-opacity:1;stroke-dasharray:6, 6;stroke-dashoffset:0"
           d="M 304.32647,414.41652 259.97841,468.1961"
           id="path4151"
           inkscape:connector-curvature="0" />
        <path
           style="fill:#ff3a00;fill-opacity:1;stroke:#ff3a00;stroke-width:2;stroke-linecap:butt;stroke-linejoin:miter;stroke-miterlimit:4;stroke-opacity:1;stroke-dasharray:6, 6;stroke-dashoffset:0"
           d="M 178.32647,514.41652 133.97841,568.1961"
           id="path4153"
           inkscape:connector-curvature="0" />
        <path
           inkscape:connector-curvature="0"
           id="path4155"
           d="M 278.32647,392.41652 233.97841,446.1961"
           style="fill:#ff3a00;fill-opacity:1;stroke:#ff3a00;stroke-width:2;stroke-linecap:butt;stroke-linejoin:miter;stroke-miterlimit:4;stroke-opacity:1;stroke-dasharray:6, 6;stroke-dashoffset:0" />
      </g>
      <path
         inkscape:connector-curvature="0"
         id="path4157"
         d="m 50.939244,799.02994 0,69.70648"
         style="fill:#ff3a00;fill-opacity:1;stroke:#ff3a00;stroke-width:2;stroke-linecap:butt;stroke-linejoin:miter;stroke-miterlimit:4;stroke-opacity:1;stroke-dasharray:6, 6;stroke-dashoffset:0" />
      <path
         style="fill:#ff3a00;fill-opacity:1;stroke:#ff3a00;stroke-width:2;stroke-linecap:butt;stroke-linejoin:miter;stroke-miterlimit:4;stroke-opacity:1;stroke-dasharray:6, 6;stroke-dashoffset:0"
         d="m 50.939244,959.02994 0,69.70646"
         id="path4159"
         inkscape:connector-curvature="0" />
      <path
         inkscape:connector-curvature="0"
         id="path4161"
         d="m 50.939244,1117.0299 0,69.7065"
         style="fill:#ff3a00;fill-opacity:1;stroke:#ff3a00;stroke-width:2;stroke-linecap:butt;stroke-linejoin:miter;stroke-miterlimit:4;stroke-opacity:1;stroke-dasharray:6, 6;stroke-dashoffset:0" />
      <path
         style="fill:#ff3a00;fill-opacity:1;stroke:#ff3a00;stroke-width:2;stroke-linecap:butt;stroke-linejoin:miter;stroke-miterlimit:4;stroke-opacity:1;stroke-dasharray:6, 6;stroke-dashoffset:0"
         d="m -9.060756,799.02994 0,69.70648"
         id="path4163"
         inkscape:connector-curvature="0" />
      <path
         inkscape:connector-curvature="0"
         id="path4165"
         d="m -9.060756,959.02994 0,69.70646"
         style="fill:#ff3a00;fill-opacity:1;stroke:#ff3a00;stroke-width:2;stroke-linecap:butt;stroke-linejoin:miter;stroke-miterlimit:4;stroke-opacity:1;stroke-dasharray:6, 6;stroke-dashoffset:0" />
      <path
         style="fill:#ff3a00;fill-opacity:1;stroke:#ff3a00;stroke-width:2;stroke-linecap:butt;stroke-linejoin:miter;stroke-miterlimit:4;stroke-opacity:1;stroke-dasharray:6, 6;stroke-dashoffset:0"
         d="m -9.060756,1117.0299 0,69.7065"
         id="path4167"
         inkscape:connector-curvature="0" />
      <path
         style="fill:#ff3a00;fill-opacity:1;stroke:#ff3a00;stroke-width:2;stroke-linecap:butt;stroke-linejoin:miter;stroke-miterlimit:4;stroke-opacity:1;stroke-dasharray:6, 6;stroke-dashoffset:0"
         d="m -11.913996,751.88318 69.70648,0"
         id="path4169"
         inkscape:connector-curvature="0" />
      <path
         inkscape:connector-curvature="0"
         id="path4171"
         d="m -11.913996,673.88318 69.70648,0"
         style="fill:#ff3a00;fill-opacity:1;stroke:#ff3a00;stroke-width:2;stroke-linecap:butt;stroke-linejoin:miter;stroke-miterlimit:4;stroke-opacity:1;stroke-dasharray:6, 6;stroke-dashoffset:0" />
      <g
         id="g4173"
         transform="translate(22,0)">
        <g
           id="g4175">
          <path
             style="fill:url(#linearGradient4271);fill-opacity:1;stroke:#000000;stroke-width:0.91663045;stroke-linecap:butt;stroke-linejoin:miter;stroke-miterlimit:4;stroke-opacity:1;stroke-dasharray:none"
             d="m 200.17857,323.44643 c -19.67447,0.087 -39.1314,8.63976 -52.5625,25.0625 -23.87776,29.1963 -19.57107,72.21618 9.625,96.09375 8.94668,7.31691 19.18656,12.0054 29.78125,14.125 l -23.59375,28.9375 c -4.17656,-9.99495 -10.81181,-19.13322 -19.78125,-26.46875 -29.19608,-23.87758 -72.18499,-19.571 -96.0625,9.625 -23.87776,29.19629 -19.57107,72.21617 9.625,96.09375 8.94668,7.31691 19.18656,11.97415 29.78125,14.09375 l -66,83.54018 0.0625,17.86607 c 88.84747,27.22797 78.38389,25.40243 0.5,62.8125 l 0.125,61.28125 c 0,0 18.31495,4.59655 18.34375,-7.84375 8.775,-7.0489 19.93151,-11.28125 32.0625,-11.28125 28.2878,0 51.21875,22.93135 51.21875,51.21875 0,28.28779 -22.93095,51.21875 -51.21875,51.21875 -12.11259,0 -23.2311,-4.18915 -32,-11.21875 -0.072,-12.4948 -18.5,-12.6875 -18.5,-12.6875 -0.037,-0.009 0.0937,98.59375 0.0937,98.59375 0,0 18.31495,4.59655 18.34375,-7.84375 8.775,-7.0489 19.93151,-11.28125 32.0625,-11.28125 28.2878,0 51.21875,22.93135 51.21875,51.21875 0,28.28772 -22.93095,51.21872 -51.21875,51.21872 -12.11259,0 -23.2311,-4.189 -32,-11.2188 -0.072,-12.4946 -18.5,-12.6874 -18.5,-12.6874 l 0.0625,98.2812 c 0,0 18.3462,4.5966 18.375,-7.8438 8.775,-7.0489 19.90026,-11.2812 32.03125,-11.2812 28.2878,0 51.21875,22.9313 51.21875,51.2188 0,28.2877 -22.93095,51.2187 -51.21875,51.2187 -12.11259,0 -23.2311,-4.1892 -32,-11.2187 -0.072,-12.4949 -18.5,-12.6876 -18.5,-12.6876 l -0.0937,60.2813 18.9375,0 -0.3125,-27.25 c 9.5431,5.0665 20.41106,7.9375 31.96875,7.9375 37.7167,0 68.3125,-30.5642 68.3125,-68.2812 0,-37.7167 -30.5958,-68.2813 -68.3125,-68.2813 -11.58709,0 -22.5019,2.8758 -32.0625,7.9687 -0.0639,-0.3302 0.0937,-37.0312 0.0937,-37.0312 9.5431,5.0665 20.44231,7.9375 32,7.9375 37.7167,0 68.28125,-30.5643 68.28125,-68.28122 0,-37.7166 -30.56455,-68.28125 -68.28125,-68.28125 -11.58709,0 -22.5019,2.87585 -32.0625,7.96875 l 0.0625,-37.34375 c 9.5431,5.0665 20.44231,7.9375 32,7.9375 37.7167,0 68.28125,-30.56426 68.28125,-68.28125 0,-37.7166 -30.56455,-68.28125 -68.28125,-68.28125 -11.58709,0 -22.5019,2.87585 -32.0625,7.96875 l -0.0312,-22.46875 c 78.66022,-40.45323 86.12595,-51.09036 -1.1875,-85.75 l 83.4375,-102.90625 c 0,0 -14.4091,-11.53275 -22.375,-1.90625 -11.23819,-0.10985 -22.46753,-3.8943 -31.84375,-11.5625 -21.89727,-17.90836 -25.15836,-50.16524 -7.25,-72.0625 17.9081,-21.89696 50.19648,-25.12711 72.09375,-7.21875 9.39047,7.67986 15.32612,18.01952 17.65625,29.03125 -7.85338,9.64813 9.25,17.65625 9.25,17.65625 0,0 62.53434,-76.2335 62.5,-76.25 0,0 -14.40909,-11.50151 -22.375,-1.875 -11.23819,-0.10986 -22.49878,-3.92554 -31.875,-11.59375 -21.89727,-17.90836 -25.1271,-50.16524 -7.21875,-72.0625 17.90811,-21.89696 50.19648,-25.1271 72.09375,-7.21875 9.39047,7.67986 15.32612,18.01953 17.65625,29.03125 -7.85338,9.64813 9.25,17.6875 9.25,17.6875 l 33.3125,-40.78125 -14.15625,-11.59375 -15.5,18.90625 c -4.17655,-9.99496 -10.81181,-19.13323 -19.78125,-26.46875 -12.77328,-10.44644 -28.19763,-15.50515 -43.5,-15.4375 z"
             id="path4177"
             inkscape:connector-curvature="0"
             sodipodi:nodetypes="sssccsssccccccsssccccsssccccssscccccsssccsssccssscccccsssccccssscccccss" />
          <path
             sodipodi:nodetypes="ccccsssccccssscccccsssccssscc"
             inkscape:connector-curvature="0"
             id="path4179"
             d="M 323.85616,383.13709 309.6851,371.5878 276.32549,412.32866 c 0,0 11.26742,15.15291 19.16538,5.54125 11.25512,0.0988 22.57065,3.88548 31.96112,11.56534 21.89727,17.90835 25.13054,50.17631 7.22244,72.07327 -17.90835,21.89726 -50.17601,25.1308 -72.07327,7.22244 -9.37623,-7.6682 -15.33088,-17.94985 -17.6685,-28.94276 7.85443,-9.71767 -6.28848,-21.53318 -6.28848,-21.53318 -0.0229,-0.0304 -62.34491,76.37963 -62.34491,76.37963 0,0 11.26743,15.15291 19.16539,5.54125 11.25512,0.0988 22.57064,3.88548 31.96111,11.56534 21.89727,17.90836 25.13055,50.17632 7.22245,72.07327 -17.90836,21.89726 -50.17601,25.1308 -72.07328,7.22245 -9.37623,-7.66821 -15.33088,-17.94985 -17.6685,-28.94277 7.85444,-9.71767 -6.28848,-21.53318 -6.28848,-21.53318 l -38.25943,46.58391 14.6593,11.98889 17.00945,-21.29175 c 4.17971,9.96343 10.7991,19.08587 19.74578,26.40279 29.19608,23.87757 72.20528,19.56784 96.08304,-9.62846 23.87752,-29.19599 19.56762,-72.20546 -9.62845,-96.08304 -8.96944,-7.33553 -19.2391,-12.01927 -29.86405,-14.12951 l 23.68986,-28.86781 c 4.17971,9.96344 10.79909,19.08588 19.74578,26.40279 29.19607,23.87758 72.20528,19.56785 96.08304,-9.62845 23.87752,-29.196 19.56762,-72.20547 -9.62845,-96.08304 -8.96945,-7.33553 -19.23911,-12.01928 -29.86405,-14.12951 z"
             style="fill:url(#linearGradient4273);fill-opacity:1;stroke:#000000;stroke-width:0.91663045;stroke-linecap:butt;stroke-linejoin:miter;stroke-miterlimit:4;stroke-opacity:1;stroke-dasharray:none" />
        </g>
      </g>
      <g
         id="g4181"
         transform="translate(4,0)">
        <path
           style="fill:url(#linearGradient4275);fill-opacity:1;stroke:#000000;stroke-width:0.91663045;stroke-linecap:butt;stroke-linejoin:miter;stroke-miterlimit:4;stroke-opacity:1;stroke-dasharray:none"
           d="m -183.8746,323.44643 c 19.67447,0.087 39.1314,8.63976 52.5625,25.0625 23.87776,29.1963 19.57107,72.21618 -9.625,96.09375 -8.94668,7.31691 -19.18656,12.0054 -29.78125,14.125 l 23.59375,28.9375 c 4.17656,-9.99495 10.81181,-19.13322 19.78125,-26.46875 29.19608,-23.87758 72.18499,-19.571 96.0625,9.625 23.87776,29.19629 19.57107,72.21617 -9.625,96.09375 -8.94668,7.31691 -19.18656,11.97415 -29.78125,14.09375 l 66,83.54018 -0.0625,17.86607 c -88.84747,27.22797 -78.38389,25.40243 -0.5,62.8125 l -0.125,61.28125 c 0,0 -18.31495,4.59655 -18.34375,-7.84375 -8.775,-7.0489 -19.93151,-11.28125 -32.0625,-11.28125 -28.2878,0 -51.21875,22.93135 -51.21875,51.21875 0,28.28779 22.93095,51.21875 51.21875,51.21875 12.11259,0 23.2311,-4.18915 32,-11.21875 0.072,-12.4948 18.5,-12.6875 18.5,-12.6875 0.037,-0.009 -0.0937,98.59375 -0.0937,98.59375 0,0 -18.31495,4.59655 -18.34375,-7.84375 -8.775,-7.0489 -19.93151,-11.28125 -32.0625,-11.28125 -28.2878,0 -51.21875,22.93135 -51.21875,51.21875 0,28.28772 22.93095,51.21872 51.21875,51.21872 12.11259,0 23.2311,-4.189 32,-11.2188 0.072,-12.4946 18.5,-12.6874 18.5,-12.6874 l -0.0625,98.2812 c 0,0 -18.3462,4.5966 -18.375,-7.8438 -8.775,-7.0489 -19.90026,-11.2812 -32.03125,-11.2812 -28.2878,0 -51.21875,22.9313 -51.21875,51.2188 0,28.2877 22.93095,51.2187 51.21875,51.2187 12.11259,0 23.2311,-4.1892 32,-11.2187 0.072,-12.4949 18.5,-12.6876 18.5,-12.6876 l 0.0937,60.2813 -18.9375,0 0.3125,-27.25 c -9.5431,5.0665 -20.41106,7.9375 -31.96875,7.9375 -37.7167,0 -68.3125,-30.5642 -68.3125,-68.2812 0,-37.7167 30.5958,-68.2813 68.3125,-68.2813 11.58709,0 22.5019,2.8758 32.0625,7.9687 0.0639,-0.3302 -0.0937,-37.0312 -0.0937,-37.0312 -9.5431,5.0665 -20.44231,7.9375 -32,7.9375 -37.7167,0 -68.28125,-30.5643 -68.28125,-68.28122 0,-37.7166 30.56455,-68.28125 68.28125,-68.28125 11.58709,0 22.5019,2.87585 32.0625,7.96875 l -0.0625,-37.34375 c -9.5431,5.0665 -20.44231,7.9375 -32,7.9375 -37.7167,0 -68.28125,-30.56426 -68.28125,-68.28125 0,-37.7166 30.56455,-68.28125 68.28125,-68.28125 11.58709,0 22.5019,2.87585 32.0625,7.96875 l 0.0312,-22.46875 c -78.66022,-40.45323 -86.12595,-51.09036 1.1875,-85.75 l -83.4375,-102.90625 c 0,0 14.4091,-11.53275 22.375,-1.90625 11.23819,-0.10985 22.46753,-3.8943 31.84375,-11.5625 21.89727,-17.90836 25.15836,-50.16524 7.25,-72.0625 -17.9081,-21.89696 -50.19648,-25.12711 -72.09375,-7.21875 -9.39047,7.67986 -15.32612,18.01952 -17.65625,29.03125 7.85338,9.64813 -9.25,17.65625 -9.25,17.65625 0,0 -62.53434,-76.2335 -62.5,-76.25 0,0 14.40909,-11.50151 22.375,-1.875 11.23819,-0.10986 22.49878,-3.92554 31.875,-11.59375 21.89727,-17.90836 25.1271,-50.16524 7.21875,-72.0625 -17.90811,-21.89696 -50.19648,-25.1271 -72.09375,-7.21875 -9.39047,7.67986 -15.32612,18.01953 -17.65625,29.03125 7.85338,9.64813 -9.25,17.6875 -9.25,17.6875 l -33.3125,-40.78125 14.15625,-11.59375 15.5,18.90625 c 4.17655,-9.99496 10.81181,-19.13323 19.78125,-26.46875 12.77328,-10.44644 28.19763,-15.50515 43.5,-15.4375 z"
           id="path4183"
           inkscape:connector-curvature="0"
           sodipodi:nodetypes="sssccsssccccccsssccccsssccccssscccccsssccsssccssscccccsssccccssscccccss" />
        <path
           sodipodi:nodetypes="ccccsssccccssscccccsssccssscc"
           inkscape:connector-curvature="0"
           id="path4185"
           d="m -307.55219,383.13709 14.17106,-11.54929 33.35961,40.74086 c 0,0 -11.26742,15.15291 -19.16538,5.54125 -11.25512,0.0988 -22.57065,3.88548 -31.96112,11.56534 -21.89727,17.90835 -25.13054,50.17631 -7.22244,72.07327 17.90835,21.89726 50.17601,25.1308 72.07327,7.22244 9.37623,-7.6682 15.33088,-17.94985 17.6685,-28.94276 -7.85443,-9.71767 6.28848,-21.53318 6.28848,-21.53318 0.0229,-0.0304 62.34491,76.37963 62.34491,76.37963 0,0 -11.26743,15.15291 -19.16539,5.54125 -11.25512,0.0988 -22.57064,3.88548 -31.96111,11.56534 -21.89727,17.90836 -25.13055,50.17632 -7.22245,72.07327 17.90836,21.89726 50.17601,25.1308 72.07328,7.22245 9.37623,-7.66821 15.33088,-17.94985 17.6685,-28.94277 -7.85444,-9.71767 6.28848,-21.53318 6.28848,-21.53318 l 38.25943,46.58391 -14.6593,11.98889 -17.00945,-21.29175 c -4.17971,9.96343 -10.7991,19.08587 -19.74578,26.40279 -29.19608,23.87757 -72.20528,19.56784 -96.08304,-9.62846 -23.87752,-29.19599 -19.56762,-72.20546 9.62845,-96.08304 8.96944,-7.33553 19.2391,-12.01927 29.86405,-14.12951 l -23.68986,-28.86781 c -4.17971,9.96344 -10.79909,19.08588 -19.74578,26.40279 -29.19607,23.87758 -72.20528,19.56785 -96.08304,-9.62845 -23.87752,-29.196 -19.56762,-72.20547 9.62845,-96.08304 8.96945,-7.33553 19.23911,-12.01928 29.86405,-14.12951 z"
           style="fill:url(#linearGradient4277);fill-opacity:1;stroke:#000000;stroke-width:0.91663045;stroke-linecap:butt;stroke-linejoin:miter;stroke-miterlimit:4;stroke-opacity:1;stroke-dasharray:none" />
      </g>
      <text
         xml:space="preserve"
         style="font-size:40px;font-style:normal;font-weight:normal;line-height:125%;letter-spacing:0px;word-spacing:0px;fill:#000000;fill-opacity:1;stroke:none;font-family:Sans"
         x="-113.71427"
         y="520.93365"
         id="text4187"
         sodipodi:linespacing="125%"><tspan
           sodipodi:role="line"
           id="tspan4189"
           x="-113.71427"
           y="520.93365"
           style="font-size:32px">C<tspan
   style="font-size:32px;baseline-shift:sub"
   id="tspan4191">H</tspan>1</tspan></text>
      <text
         xml:space="preserve"
         style="font-size:40px;font-style:normal;font-weight:normal;line-height:125%;letter-spacing:0px;word-spacing:0px;fill:#000000;fill-opacity:1;stroke:none;font-family:Sans"
         x="199.14285"
         y="400.07651"
         id="text4193"
         sodipodi:linespacing="125%"><tspan
           sodipodi:role="line"
           id="tspan4195"
           x="199.14285"
           y="400.07651"
           style="font-size:32px">V<tspan
   style="font-size:32px;baseline-shift:sub"
   id="tspan4197">H</tspan></tspan></text>
      <text
         xml:space="preserve"
         style="font-size:40px;font-style:normal;font-weight:normal;line-height:125%;letter-spacing:0px;word-spacing:0px;fill:#000000;fill-opacity:1;stroke:none;font-family:Sans"
         x="-299.99997"
         y="481.21936"
         id="text4199"
         sodipodi:linespacing="125%"><tspan
           sodipodi:role="line"
           id="tspan4201"
           x="-299.99997"
           y="481.21936"
           style="font-size:32px">V<tspan
   style="font-size:32px;baseline-shift:sub"
   id="tspan4203">L</tspan></tspan></text>
      <text
         xml:space="preserve"
         style="font-size:40px;font-style:normal;font-weight:normal;line-height:125%;letter-spacing:0px;word-spacing:0px;fill:#000000;fill-opacity:1;stroke:none;font-family:Sans"
         x="199.71429"
         y="601.2193"
         id="text4205"
         sodipodi:linespacing="125%"><tspan
           sodipodi:role="line"
           id="tspan4207"
           x="199.71429"
           y="601.2193"
           style="font-size:32px">C<tspan
   style="font-size:32px;baseline-shift:sub"
   id="tspan4209">L</tspan></tspan></text>
      <text
         sodipodi:linespacing="125%"
         id="text4211"
         y="841.79077"
         x="-93.428543"
         style="font-size:40px;font-style:normal;font-weight:normal;line-height:125%;letter-spacing:0px;word-spacing:0px;fill:#000000;fill-opacity:1;stroke:none;font-family:Sans"
         xml:space="preserve"><tspan
           y="841.79077"
           x="-93.428543"
           id="tspan4213"
           sodipodi:role="line"
           style="font-size:32px">C<tspan
   id="tspan4215"
   style="font-size:32px;baseline-shift:sub">H</tspan>2</tspan></text>
      <text
         xml:space="preserve"
         style="font-size:40px;font-style:normal;font-weight:normal;line-height:125%;letter-spacing:0px;word-spacing:0px;fill:#000000;fill-opacity:1;stroke:none;font-family:Sans"
         x="-93.428543"
         y="1000.6479"
         id="text4217"
         sodipodi:linespacing="125%"><tspan
           sodipodi:role="line"
           id="tspan4219"
           x="-93.428543"
           y="1000.6479"
           style="font-size:32px">C<tspan
   style="font-size:32px;baseline-shift:sub"
   id="tspan4221">H</tspan>3</tspan></text>
      <text
         sodipodi:linespacing="125%"
         id="text4223"
         y="1161.7908"
         x="68.571457"
         style="font-size:40px;font-style:normal;font-weight:normal;line-height:125%;letter-spacing:0px;word-spacing:0px;fill:#000000;fill-opacity:1;stroke:none;font-family:Sans"
         xml:space="preserve"><tspan
           y="1161.7908"
           x="68.571457"
           id="tspan4225"
           sodipodi:role="line"
           style="font-size:32px">C<tspan
   id="tspan4227"
   style="font-size:32px;baseline-shift:sub">H</tspan>4</tspan></text>
      <text
         sodipodi:linespacing="125%"
         id="text4229"
         y="520.64795"
         x="86.857155"
         style="font-size:40px;font-style:normal;font-weight:normal;line-height:125%;letter-spacing:0px;word-spacing:0px;fill:#000000;fill-opacity:1;stroke:none;font-family:Sans"
         xml:space="preserve"><tspan
           style="font-size:32px"
           y="520.64795"
           x="86.857155"
           id="tspan4231"
           sodipodi:role="line">C<tspan
   id="tspan4233"
   style="font-size:32px;baseline-shift:sub">H</tspan>1</tspan></text>
      <text
         xml:space="preserve"
         style="font-size:40px;font-style:normal;font-weight:normal;line-height:125%;letter-spacing:0px;word-spacing:0px;fill:#000000;fill-opacity:1;stroke:none;font-family:Sans"
         x="68.285744"
         y="839.79077"
         id="text4235"
         sodipodi:linespacing="125%"><tspan
           style="font-size:32px"
           sodipodi:role="line"
           id="tspan4237"
           x="68.285744"
           y="839.79077">C<tspan
   style="font-size:32px;baseline-shift:sub"
   id="tspan4239">H</tspan>2</tspan></text>
      <text
         sodipodi:linespacing="125%"
         id="text4241"
         y="999.79077"
         x="67.714317"
         style="font-size:40px;font-style:normal;font-weight:normal;line-height:125%;letter-spacing:0px;word-spacing:0px;fill:#000000;fill-opacity:1;stroke:none;font-family:Sans"
         xml:space="preserve"><tspan
           style="font-size:32px"
           y="999.79077"
           x="67.714317"
           id="tspan4243"
           sodipodi:role="line">C<tspan
   id="tspan4245"
   style="font-size:32px;baseline-shift:sub">H</tspan>3</tspan></text>
      <text
         xml:space="preserve"
         style="font-size:40px;font-style:normal;font-weight:normal;line-height:125%;letter-spacing:0px;word-spacing:0px;fill:#000000;fill-opacity:1;stroke:none;font-family:Sans"
         x="-93.428543"
         y="1162.3623"
         id="text4247"
         sodipodi:linespacing="125%"><tspan
           style="font-size:32px"
           sodipodi:role="line"
           id="tspan4249"
           x="-93.428543"
           y="1162.3623">C<tspan
   style="font-size:32px;baseline-shift:sub"
   id="tspan4251">H</tspan>4</tspan></text>
      <text
         sodipodi:linespacing="125%"
         id="text4253"
         y="399.50507"
         x="-202.00002"
         style="font-size:40px;font-style:normal;font-weight:normal;line-height:125%;letter-spacing:0px;word-spacing:0px;fill:#000000;fill-opacity:1;stroke:none;font-family:Sans"
         xml:space="preserve"><tspan
           style="font-size:32px"
           y="399.50507"
           x="-202.00002"
           id="tspan4255"
           sodipodi:role="line">V<tspan
   id="tspan4257"
   style="font-size:32px;baseline-shift:sub">H</tspan></tspan></text>
      <text
         sodipodi:linespacing="125%"
         id="text4259"
         y="600.64789"
         x="-199.71428"
         style="font-size:40px;font-style:normal;font-weight:normal;line-height:125%;letter-spacing:0px;word-spacing:0px;fill:#000000;fill-opacity:1;stroke:none;font-family:Sans"
         xml:space="preserve"><tspan
           style="font-size:32px"
           y="600.64789"
           x="-199.71428"
           id="tspan4261"
           sodipodi:role="line">C<tspan
   id="tspan4263"
   style="font-size:32px;baseline-shift:sub">L</tspan></tspan></text>
      <text
         sodipodi:linespacing="125%"
         id="text4265"
         y="481.21936"
         x="301.14288"
         style="font-size:40px;font-style:normal;font-weight:normal;line-height:125%;letter-spacing:0px;word-spacing:0px;fill:#000000;fill-opacity:1;stroke:none;font-family:Sans"
         xml:space="preserve"><tspan
           style="font-size:32px"
           y="481.21936"
           x="301.14288"
           id="tspan4267"
           sodipodi:role="line">V<tspan
   id="tspan4269"
   style="font-size:32px;baseline-shift:sub">L</tspan></tspan></text>
    </g>
  </g>
</svg>
