<?xml version="1.0" encoding="utf-8"?>
<!-- Generator: Adobe Illustrator 21.0.0, SVG Export Plug-In . SVG Version: 6.00 Build 0)  -->
<svg version="1.1"
	 id="svg2" inkscape:version="0.91 r13725" sodipodi:docname="gas exchange.svg" xmlns:cc="http://creativecommons.org/ns#" xmlns:dc="http://purl.org/dc/elements/1.1/" xmlns:inkscape="http://www.inkscape.org/namespaces/inkscape" xmlns:rdf="http://www.w3.org/1999/02/22-rdf-syntax-ns#" xmlns:sodipodi="http://sodipodi.sourceforge.net/DTD/sodipodi-0.dtd" xmlns:svg="http://www.w3.org/2000/svg"
	 xmlns="http://www.w3.org/2000/svg" xmlns:xlink="http://www.w3.org/1999/xlink" x="0px" y="0px" viewBox="0 0 312.5 253.1"
	 style="enable-background:new 0 0 312.5 253.1;" xml:space="preserve">
<style type="text/css">
	.st0{fill:url(#path4149_1_);stroke:#7F2A31;stroke-width:12;stroke-linejoin:round;}
	.st1{fill:none;stroke:#F0A6A0;stroke-width:8;stroke-linejoin:round;stroke-dasharray:60,2;}
	.st2{fill:none;stroke:url(#path4189_1_);stroke-width:25;stroke-linejoin:round;}
	.st3{fill:none;stroke:#7F2A31;stroke-width:12;stroke-linejoin:round;}
	.st4{fill:url(#circle4330_1_);stroke:#141313;stroke-width:0.8077;stroke-linejoin:round;}
	.st5{fill:none;}
	.st6{fill:#0E7FFE;stroke:#0E7FFE;stroke-width:0.625;stroke-linejoin:round;}
	.st7{fill:#FE2E2F;stroke:#FE2E2F;stroke-width:0.625;stroke-linejoin:round;}
	.st8{fill:#FFD42A;fill-opacity:0.8235;stroke:#FFD42A;stroke-width:0.625;stroke-linejoin:round;stroke-opacity:0.8235;}
	.st9{fill:#FF7F2A;fill-opacity:0.8235;stroke:#FF7F2A;stroke-width:0.625;stroke-linejoin:round;stroke-opacity:0.8235;}
</style>
<sodipodi:namedview  bordercolor="#666666" borderopacity="1.0" fit-margin-bottom="0" fit-margin-left="0" fit-margin-right="0" fit-margin-top="0" id="base" inkscape:current-layer="layer1" inkscape:cx="138.12061" inkscape:cy="208.6415" inkscape:document-units="px" inkscape:pageopacity="0.0" inkscape:pageshadow="2" inkscape:window-height="2130" inkscape:window-maximized="1" inkscape:window-width="3840" inkscape:window-x="0" inkscape:window-y="30" inkscape:zoom="3.3511966" pagecolor="#ffffff" showgrid="false">
	</sodipodi:namedview>
<g id="layer1" transform="translate(-221.60967,-434.59488)" inkscape:groupmode="layer" inkscape:label="Layer 1">
	
		<radialGradient id="path4149_1_" cx="610.3051" cy="118.3048" r="125.7247" gradientTransform="matrix(0.8455 2.167496e-02 3.722197e-02 -1.4519 -143.2907 686.0893)" gradientUnits="userSpaceOnUse">
		<stop  offset="0" style="stop-color:#FCC9BE"/>
		<stop  offset="1" style="stop-color:#D76E6E"/>
	</radialGradient>
	<path id="path4149" inkscape:connector-curvature="0" sodipodi:nodetypes="csacscccccsc" class="st0" d="M357,434.8
		c0,0-1.4,39.2-6.7,59.2c-0.8,3.2-1.5,6.8-3.9,9.1c-2.6,2.5-5.7,3.9-10.1,3.7c-29.3-2.2-55.6,17.4-59.4,41.4
		c-6.5,41.1,33.4,53.3,58.4,59.6c11.4,19.7,17.4,36,40.9,41.4c47.4,6.4,58.5-21.5,67.8-43.5c23.9-11.7,43.5-35.6,31.6-67.9
		c-13-31.3-41.3-35.6-69.4-33.5c-3.6,0.1-8.6-2.4-7.8-6.3c3.1-15.9,5-61.4,5-61.4"/>
	<path id="path4183" inkscape:connector-curvature="0" sodipodi:nodetypes="csacscccccsc" class="st1" d="M357,434.8
		c0,0-1.4,39.2-6.7,59.2c-0.8,3.2-1.5,6.8-3.9,9.1c-2.6,2.5-5.7,3.9-10.1,3.7c-29.3-2.2-55.6,17.4-59.4,41.4
		c-6.5,41.1,33.4,53.3,58.4,59.6c11.4,19.7,17.4,36,40.9,41.4c47.4,6.4,58.5-21.5,67.8-43.5c23.9-11.7,43.5-35.6,31.6-67.9
		c-13-31.3-41.3-35.6-69.4-33.5c-3.6,0.1-8.6-2.4-7.8-6.3c3.1-15.9,5-61.4,5-61.4"/>
	
		<linearGradient id="path4189_1_" gradientUnits="userSpaceOnUse" x1="450.9011" y1="67.0973" x2="820.314" y2="67.0973" gradientTransform="matrix(0.7868 -0.1447 -0.1447 -0.7868 -99.1975 729.3249)">
		<stop  offset="0" style="stop-color:#80B3FF"/>
		<stop  offset="0.4881" style="stop-color:#DDAFE9"/>
		<stop  offset="1" style="stop-color:#FFAAAA"/>
	</linearGradient>
	<path id="path4189" inkscape:connector-curvature="0" sodipodi:nodetypes="caaassac" class="st2" d="M239.3,516.8
		c0,0,6.9,15,9.9,22.6c7.2,18.2,7.9,39.6,19.6,55.3c13,17.5,34.9,26.2,52.8,38.6c19.7,13.7,35.8,40.6,60.1,39.5
		c54.8-2.3,60.6-29.3,79.9-50.5c11.1-12.2,25-22.3,33.5-36.4c12.6-21,24.5-69.2,24.5-69.2"/>
	<path id="path4235" inkscape:connector-curvature="0" sodipodi:nodetypes="csssssssssccsssssssssc" class="st3" d="M230.3,521
		c0,0,7,15.2,9.7,22.1c6.3,15.9,6.7,38.6,20.9,57.6c15.3,20.5,38.5,29.4,55.1,40.9c8.4,5.8,17.2,15.7,27.5,24.6
		c10.2,8.9,22.9,17.4,38.8,16.7c29-1.2,47.2-9.6,59.5-20.8c12.3-11.2,18.7-23.6,27.3-33c10.1-11.2,24.8-21.5,34.7-38
		c7.3-12.2,13.3-29.7,18-44.6s7.7-27.3,7.7-27.3 M510,514.4c0,0-2.9,11.8-7.4,26.2s-10.7,31.5-16,40.2
		c-7.1,11.8-20.3,21.6-32.3,34.8c-10.7,11.8-16.8,23.4-25.9,31.7c-9.1,8.2-21.2,14.5-47,15.6c-8.4,0.4-16-4.1-24.8-11.8
		c-8.8-7.7-17.9-18.1-29.2-26c-19.3-13.4-39.7-21.9-50.5-36.4c-9.2-12.3-10.2-32.5-18.3-53c-3.3-8.3-10.1-23.1-10.1-23.1"/>
	<path id="path4245" inkscape:connector-curvature="0" sodipodi:nodetypes="csssssssssccsssssssssc" class="st1" d="M230.3,521
		c0,0,7,15.2,9.7,22.1c6.3,15.9,6.7,38.6,20.9,57.6c15.3,20.5,38.5,29.4,55.1,40.9c8.4,5.8,17.2,15.7,27.5,24.6
		c10.2,8.9,22.9,17.4,38.8,16.7c29-1.2,47.2-9.6,59.5-20.8c12.3-11.2,18.7-23.6,27.3-33c10.1-11.2,24.8-21.5,34.7-38
		c7.3-12.2,13.3-29.7,18-44.6s7.7-27.3,7.7-27.3 M510,514.4c0,0-2.9,11.8-7.4,26.2s-10.7,31.5-16,40.2
		c-7.1,11.8-20.3,21.6-32.3,34.8c-10.7,11.8-16.8,23.4-25.9,31.7c-9.1,8.2-21.2,14.5-47,15.6c-8.4,0.4-16-4.1-24.8-11.8
		c-8.8-7.7-17.9-18.1-29.2-26c-19.3-13.4-39.7-21.9-50.5-36.4c-9.2-12.3-10.2-32.5-18.3-53c-3.3-8.3-10.1-23.1-10.1-23.1"/>
	<g id="g4942" transform="matrix(0.98350197,-0.18089743,0.18089743,0.98350197,-62.592385,82.123512)">
		<g id="g4262" transform="matrix(0.6190476,0,0,0.6190476,730.74147,208.82458)">
		</g>
		<g id="g4266" transform="matrix(0.6190476,0,0,0.6190476,704.76585,258.1332)">
		</g>
		<g id="g4272" transform="matrix(0.6190476,0,0,0.6190476,672.2939,295.63641)">
		</g>
		<g id="g4278" transform="matrix(0.6190476,0,0,0.6190476,637.91298,319.27329)">
		</g>
		<g id="g4284" transform="matrix(0.6190476,0,0,0.6190476,559.4815,364.39825)">
		</g>
		<g id="g4290" transform="matrix(0.6190476,0,0,0.6190476,599.87909,351.5054)">
		</g>
		<g id="g4296" transform="matrix(0.6190476,0,0,0.6190476,504.25715,350.00124)">
		</g>
		<g id="g4302" transform="matrix(0.6190476,0,0,0.6190476,473.74407,311.96734)">
		</g>
		<g id="g4308" transform="matrix(0.6190476,0,0,0.6190476,442.1566,280.16498)">
		</g>
		<g id="g4314" transform="matrix(0.6190476,0,0,0.6190476,413.70333,250.8533)">
		</g>
		<g id="g4320" transform="matrix(0.6190476,0,0,0.6190476,400.68461,212.9073)">
		</g>
		<g id="g4326" transform="matrix(0.6190476,0,0,0.6190476,396.91768,170.86664)">
			
				<linearGradient id="circle4330_1_" gradientUnits="userSpaceOnUse" x1="-514.1111" y1="-424.4565" x2="50.8053" y2="-424.4565" gradientTransform="matrix(0.4871 8.958708e-02 8.958708e-02 -0.4871 -3.5888 508.8284)">
				<stop  offset="0" style="stop-color:#0083FF"/>
				<stop  offset="0.4881" style="stop-color:#DD3FE9"/>
				<stop  offset="1" style="stop-color:#FF2D29"/>
			</linearGradient>
			<path id="circle4330" inkscape:connector-curvature="0" class="st4" d="M-275.2,544.5c0,1.9-1.6,3.5-3.5,3.5l0,0
				c-1.9,0-3.5-1.6-3.5-3.5c0-1.9,1.6-3.5,3.5-3.5C-276.7,541-275.2,542.5-275.2,544.5L-275.2,544.5z M-271,544.5
				c0,4.2-3.4,7.7-7.7,7.7c-4.2,0-7.7-3.4-7.7-7.7c0-4.2,3.4-7.7,7.7-7.7S-271,540.2-271,544.5z M-270.3,598.8
				c0,1.9-1.6,3.5-3.5,3.5l0,0c-1.9,0-3.5-1.6-3.5-3.5c0-1.9,1.6-3.5,3.5-3.5S-270.3,596.9-270.3,598.8L-270.3,598.8z M-266.1,598.8
				c0,4.2-3.4,7.7-7.7,7.7s-7.7-3.4-7.7-7.7c0-4.2,3.4-7.7,7.7-7.7S-266.1,594.6-266.1,598.8z M-253.5,647.8c0,1.9-1.6,3.5-3.5,3.5
				c-1.9,0-3.5-1.6-3.5-3.5c0-1.9,1.6-3.5,3.5-3.5C-255,644.4-253.5,645.9-253.5,647.8z M-249.3,647.8c0,4.2-3.4,7.7-7.7,7.7
				c-4.2,0-7.7-3.4-7.7-7.7c0-4.2,3.4-7.7,7.7-7.7C-252.7,640.2-249.3,643.6-249.3,647.8z M-216.7,685.7c0,1.9-1.6,3.5-3.5,3.5
				c-1.9,0-3.5-1.6-3.5-3.5s1.6-3.5,3.5-3.5C-218.3,682.2-216.7,683.8-216.7,685.7z M-212.5,685.7c0,4.2-3.4,7.7-7.7,7.7
				s-7.7-3.4-7.7-7.7c0-4.2,3.4-7.7,7.7-7.7C-215.9,678-212.5,681.5-212.5,685.7z M-175.9,726.8c0,1.9-1.6,3.5-3.5,3.5
				c-1.9,0-3.5-1.6-3.5-3.5s1.6-3.5,3.5-3.5C-177.4,723.3-175.9,724.9-175.9,726.8z M-171.7,726.8c0,4.2-3.4,7.7-7.7,7.7
				c-4.2,0-7.7-3.4-7.7-7.7s3.4-7.7,7.7-7.7S-171.7,722.6-171.7,726.8z M-136.5,776c0,1.9-1.6,3.5-3.5,3.5l0,0
				c-1.9,0-3.5-1.6-3.5-3.5c0-1.9,1.6-3.5,3.5-3.5S-136.5,774-136.5,776L-136.5,776z M-132.3,776c0,4.2-3.4,7.7-7.7,7.7h0
				c-4.2,0-7.7-3.4-7.7-7.7c0-4.2,3.4-7.7,7.7-7.7S-132.3,771.7-132.3,776L-132.3,776z M-12.9,777.9c0,1.9-1.6,3.5-3.5,3.5
				c-1.9,0-3.5-1.6-3.5-3.5c0-1.9,1.6-3.5,3.5-3.5S-12.9,776-12.9,777.9z M-8.7,777.9c0,4.2-3.4,7.7-7.7,7.7c-4.2,0-7.7-3.4-7.7-7.7
				c0-4.2,3.4-7.7,7.7-7.7S-8.7,773.7-8.7,777.9z M-65.1,794.6c0,1.9-1.6,3.5-3.5,3.5s-3.5-1.6-3.5-3.5c0-1.9,1.6-3.5,3.5-3.5
				S-65.1,792.6-65.1,794.6z M-60.9,794.6c0,4.2-3.4,7.7-7.7,7.7s-7.7-3.4-7.7-7.7c0-4.2,3.4-7.7,7.7-7.7S-60.9,790.3-60.9,794.6z
				 M36.3,736.2c0,1.9-1.6,3.5-3.5,3.5s-3.5-1.6-3.5-3.5c0-1.9,1.6-3.5,3.5-3.5C34.7,732.8,36.3,734.3,36.3,736.2z M40.5,736.2
				c0,4.2-3.4,7.7-7.7,7.7s-7.7-3.4-7.7-7.7c0-4.2,3.4-7.7,7.7-7.7S40.5,732,40.5,736.2z M80.7,705.7c0,1.9-1.6,3.5-3.5,3.5
				c-1.9,0-3.5-1.6-3.5-3.5s1.6-3.5,3.5-3.5C79.1,702.2,80.7,703.8,80.7,705.7z M84.9,705.7c0,4.2-3.4,7.7-7.7,7.7
				c-4.2,0-7.7-3.4-7.7-7.7c0-4.2,3.4-7.7,7.7-7.7C81.5,698,84.9,701.5,84.9,705.7z M122.7,657.2c0,1.9-1.6,3.5-3.5,3.5
				c-1.9,0-3.5-1.6-3.5-3.5s1.6-3.5,3.5-3.5C121.1,653.8,122.7,655.3,122.7,657.2z M126.9,657.2c0,4.2-3.4,7.7-7.7,7.7
				c-4.2,0-7.7-3.4-7.7-7.7c0-4.2,3.4-7.7,7.7-7.7C123.4,649.6,126.9,653,126.9,657.2z M156.2,593.5c0,1.9-1.6,3.5-3.5,3.5l0,0
				c-1.9,0-3.5-1.6-3.5-3.5c0-1.9,1.6-3.5,3.5-3.5C154.7,590,156.2,591.6,156.2,593.5L156.2,593.5z M160.4,593.5
				c0,4.2-3.4,7.7-7.7,7.7c-4.2,0-7.7-3.4-7.7-7.7c0-4.2,3.4-7.7,7.7-7.7S160.4,589.3,160.4,593.5z"/>
		</g>
	</g>
	<path class="st5" d=""/>
	<path id="path5889" inkscape:connector-curvature="0" class="st6" d="M235.5,498.1l1,13.9l-9.8-10
		C230.1,502.8,233.7,501.2,235.5,498.1z"/>
	<path id="path7219" inkscape:connector-curvature="0" sodipodi:nodetypes="cc" class="st6" d="M235.3,509.6"/>
	<path class="st5" d=""/>
	<path id="path7261" inkscape:connector-curvature="0" class="st7" d="M517.4,509.6l7.9-11.5l1.4,13.9
		C524.5,509.3,520.8,508.3,517.4,509.6z"/>
	<path id="path7257" inkscape:connector-curvature="0" sodipodi:nodetypes="cc" class="st7" d="M529.4,480.8"/>
	<path class="st5" d=""/>
	<path id="path8355" inkscape:connector-curvature="0" class="st8" d="M273.8,584.9l13.8-2l-9.2,10.5
		C278.9,589.9,277.1,586.5,273.8,584.9z"/>
	<path id="path8343" inkscape:connector-curvature="0" class="st8" d="M301.6,537.5"/>
	<path class="st5" d=""/>
	<path id="path8413" inkscape:connector-curvature="0" class="st9" d="M355.6,634.7l-13,5l6.7-12.3
		C349.5,631,352.1,633.9,355.6,634.7z"/>
	<path id="path8345" inkscape:connector-curvature="0" sodipodi:nodetypes="cc" class="st9" d="M287.7,613"/>
	<path class="st5" d=""/>
	<path id="path8543" inkscape:connector-curvature="0" class="st8" d="M409.6,658.7l-1.3-13.9l10,9.8
		C414.8,653.9,411.3,655.5,409.6,658.7z"/>
	<path id="path8473" inkscape:connector-curvature="0" sodipodi:nodetypes="cc" class="st8" d="M404.5,620.5"/>
	<path class="st5" d=""/>
	<path id="path8607" inkscape:connector-curvature="0" class="st9" d="M461.5,590.1l10.2,9.5l-14-0.7
		C460.8,597.2,462.3,593.6,461.5,590.1z"/>
	<path id="path8475" inkscape:connector-curvature="0" sodipodi:nodetypes="cc" class="st9" d="M496.9,578.6"/>
</g>
</svg>
