<svg id="レイヤー_1" data-name="レイヤー 1" xmlns="http://www.w3.org/2000/svg" xmlns:xlink="http://www.w3.org/1999/xlink" viewBox="0 0 170 730"><defs><linearGradient id="ターコイズ" x1="164" y1="532.35" x2="11.74" y2="532.35" gradientUnits="userSpaceOnUse"><stop offset="0.01" stop-color="#3eafcd"/><stop offset="0.5" stop-color="#0091b8"/><stop offset="0.99" stop-color="#00767f"/></linearGradient><linearGradient id="ターコイズ-2" x1="155.99" y1="662.76" x2="3.89" y2="662.76" xlink:href="#ターコイズ"/><linearGradient id="ターコイズ-3" x1="156.15" y1="443.35" x2="3.89" y2="443.35" xlink:href="#ターコイズ"/><linearGradient id="ターコイズ-4" x1="164" y1="287.35" x2="11.74" y2="287.35" xlink:href="#ターコイズ"/><linearGradient id="ターコイズ-5" x1="156.15" y1="204.35" x2="3.89" y2="204.35" xlink:href="#ターコイズ"/><linearGradient id="ターコイズ-6" x1="164" y1="75.14" x2="12.29" y2="75.14" xlink:href="#ターコイズ"/><linearGradient id="ターコイズ-7" x1="12.5" y1="722.91" x2="11.74" y2="722.91" xlink:href="#ターコイズ"/><linearGradient id="ターコイズ-8" x1="155.8" y1="12.7" x2="156.15" y2="12.7" xlink:href="#ターコイズ"/><linearGradient id="新規グラデーションスウォッチ_1" x1="-265.6" y1="230" x2="-265.6" y2="222" gradientTransform="matrix(-1, 0, 0, 1, -221, 0)" gradientUnits="userSpaceOnUse"><stop offset="0" stop-color="#ebad00"/><stop offset="0.08" stop-color="#ebae04"/><stop offset="0.16" stop-color="#ecb30f"/><stop offset="0.24" stop-color="#eeb922"/><stop offset="0.32" stop-color="#f0c33d"/><stop offset="0.4" stop-color="#f3d060"/><stop offset="0.47" stop-color="#f6df89"/><stop offset="0.5" stop-color="#f8e69c"/><stop offset="0.58" stop-color="#f8e790"/><stop offset="0.72" stop-color="#f9e96e"/><stop offset="0.91" stop-color="#fbec39"/><stop offset="0.99" stop-color="#fcee21"/></linearGradient><linearGradient id="サファイア" x1="-323.33" y1="222" x2="-323.33" y2="230" gradientTransform="matrix(-1, 0, 0, 1, -221, 0)" gradientUnits="userSpaceOnUse"><stop offset="0" stop-color="#1a1b7d"/><stop offset="0.09" stop-color="#1c1f80"/><stop offset="0.18" stop-color="#232c88"/><stop offset="0.28" stop-color="#2e4195"/><stop offset="0.37" stop-color="#3e5ea7"/><stop offset="0.47" stop-color="#5184bf"/><stop offset="0.49" stop-color="#568cc4"/><stop offset="0.61" stop-color="#3a5c9b"/><stop offset="0.73" stop-color="#223479"/><stop offset="0.84" stop-color="#111860"/><stop offset="0.93" stop-color="#070651"/><stop offset="1" stop-color="#03004c"/></linearGradient><linearGradient id="ルビー" x1="-338" y1="245" x2="-338" y2="253" gradientTransform="matrix(-1, 0, 0, 1, -221, 0)" gradientUnits="userSpaceOnUse"><stop offset="0" stop-color="#c30041"/><stop offset="0.2" stop-color="#c30046"/><stop offset="0.25" stop-color="#c30048"/><stop offset="0.43" stop-color="#f5b5b3"/><stop offset="0.48" stop-color="#e2979b"/><stop offset="0.57" stop-color="#c46a75"/><stop offset="0.66" stop-color="#ac4456"/><stop offset="0.75" stop-color="#99263e"/><stop offset="0.84" stop-color="#8b112d"/><stop offset="0.92" stop-color="#830422"/><stop offset="1" stop-color="#80001f"/></linearGradient><linearGradient id="ペリドット" x1="-280.5" y1="245" x2="-280.5" y2="253" gradientTransform="matrix(-1, 0, 0, 1, -221, 0)" gradientUnits="userSpaceOnUse"><stop offset="0" stop-color="#84b527"/><stop offset="0.14" stop-color="#86b62a"/><stop offset="0.25" stop-color="#8dbb33"/><stop offset="0.34" stop-color="#99c243"/><stop offset="0.43" stop-color="#a9cc59"/><stop offset="0.49" stop-color="#b8d66e"/><stop offset="0.55" stop-color="#a2c25a"/><stop offset="0.69" stop-color="#779a33"/><stop offset="0.82" stop-color="#597e17"/><stop offset="0.93" stop-color="#466c06"/><stop offset="1" stop-color="#3f6600"/></linearGradient><linearGradient id="ルビー-2" x1="-285.92" y1="199" x2="-285.92" y2="207" gradientTransform="translate(316)" xlink:href="#ルビー"/><linearGradient id="ペリドット-2" x1="-254.03" y1="199" x2="-254.03" y2="207" gradientTransform="translate(316)" xlink:href="#ペリドット"/><linearGradient id="新規グラデーションスウォッチ_1-2" x1="-381.46" y1="278" x2="-381.46" y2="270" gradientTransform="translate(510.85)" xlink:href="#新規グラデーションスウォッチ_1"/><linearGradient id="サファイア-2" x1="-423.02" y1="270" x2="-423.02" y2="278" gradientTransform="translate(510.85)" xlink:href="#サファイア"/><linearGradient id="新規グラデーションスウォッチ_1-3" x1="-330.19" y1="301.01" x2="-330.19" y2="293.24" xlink:href="#新規グラデーションスウォッチ_1"/><linearGradient id="サファイア-3" x1="-356.29" y1="293.24" x2="-356.29" y2="301.01" xlink:href="#サファイア"/><linearGradient id="ルビー-3" x1="-354.7" y1="317" x2="-354.7" y2="325" xlink:href="#ルビー"/><linearGradient id="ペリドット-3" x1="-320.39" y1="317" x2="-320.39" y2="325" xlink:href="#ペリドット"/><linearGradient id="ルビー-4" x1="-351.51" y1="340" x2="-351.51" y2="348" xlink:href="#ルビー"/><linearGradient id="ペリドット-4" x1="-293.05" y1="340" x2="-293.05" y2="348" xlink:href="#ペリドット"/><linearGradient id="ルビー-5" x1="-339.54" y1="484" x2="-339.54" y2="492" xlink:href="#ルビー"/><linearGradient id="ペリドット-5" x1="-279.14" y1="484" x2="-279.14" y2="492" xlink:href="#ペリドット"/><linearGradient id="ルビー-6" x1="-353.67" y1="534" x2="-353.67" y2="542" xlink:href="#ルビー"/><linearGradient id="ペリドット-6" x1="-321.3" y1="534" x2="-321.3" y2="542" xlink:href="#ペリドット"/><linearGradient id="ルビー-7" x1="-316.92" y1="703" x2="-316.92" y2="711" xlink:href="#ルビー"/><linearGradient id="ペリドット-7" x1="-265.22" y1="703" x2="-265.22" y2="711" xlink:href="#ペリドット"/><linearGradient id="ルビー-8" x1="-350" y1="104" x2="-350" y2="112" xlink:href="#ルビー"/><linearGradient id="ペリドット-8" x1="-292.5" y1="104" x2="-292.5" y2="112" xlink:href="#ペリドット"/><linearGradient id="新規グラデーションスウォッチ_1-4" x1="-268.6" y1="135" x2="-268.6" y2="127" xlink:href="#新規グラデーションスウォッチ_1"/><linearGradient id="サファイア-4" x1="-326.33" y1="127" x2="-326.33" y2="135" xlink:href="#サファイア"/><linearGradient id="新規グラデーションスウォッチ_1-5" x1="-271.7" y1="420" x2="-271.7" y2="412" xlink:href="#新規グラデーションスウォッチ_1"/><linearGradient id="サファイア-5" x1="-320.41" y1="412" x2="-320.41" y2="420" xlink:href="#サファイア"/><linearGradient id="新規グラデーションスウォッチ_1-6" x1="-265.6" y1="469" x2="-265.6" y2="461" xlink:href="#新規グラデーションスウォッチ_1"/><linearGradient id="サファイア-6" x1="-323.33" y1="461" x2="-323.33" y2="469" xlink:href="#サファイア"/><linearGradient id="新規グラデーションスウォッチ_1-7" x1="-287.74" y1="590" x2="-287.74" y2="582" xlink:href="#新規グラデーションスウォッチ_1"/><linearGradient id="サファイア-7" x1="-347.57" y1="582" x2="-347.57" y2="590" xlink:href="#サファイア"/><linearGradient id="新規グラデーションスウォッチ_1-8" x1="-254.6" y1="371" x2="-254.6" y2="363" gradientTransform="translate(374.85)" xlink:href="#新規グラデーションスウォッチ_1"/><linearGradient id="サファイア-8" x1="-312.33" y1="363" x2="-312.33" y2="371" gradientTransform="translate(374.85)" xlink:href="#サファイア"/><linearGradient id="新規グラデーションスウォッチ_1-9" x1="-250.93" y1="517" x2="-250.93" y2="509" gradientTransform="translate(374.85)" xlink:href="#新規グラデーションスウォッチ_1"/><linearGradient id="サファイア-9" x1="-302.54" y1="509" x2="-302.54" y2="517" gradientTransform="translate(374.85)" xlink:href="#サファイア"/><linearGradient id="新規グラデーションスウォッチ_1-10" x1="-295.62" y1="660" x2="-295.62" y2="652" gradientTransform="translate(374.85)" xlink:href="#新規グラデーションスウォッチ_1"/><linearGradient id="サファイア-10" x1="-333.8" y1="652" x2="-333.8" y2="660" gradientTransform="translate(374.85)" xlink:href="#サファイア"/><linearGradient id="ルビー-9" x1="-214.13" y1="58" x2="-214.13" y2="66" gradientTransform="translate(316)" xlink:href="#ルビー"/><linearGradient id="ペリドット-9" x1="-184.66" y1="58" x2="-184.66" y2="66" gradientTransform="translate(316)" xlink:href="#ペリドット"/><linearGradient id="ルビー-10" x1="-282.68" y1="387" x2="-282.68" y2="395" gradientTransform="translate(316)" xlink:href="#ルビー"/><linearGradient id="ペリドット-10" x1="-230.5" y1="387" x2="-230.5" y2="395" gradientTransform="translate(316)" xlink:href="#ペリドット"/><linearGradient id="ルビー-11" x1="-271.51" y1="605.24" x2="-271.51" y2="613.01" gradientTransform="translate(316)" xlink:href="#ルビー"/><linearGradient id="ペリドット-11" x1="-213.05" y1="605.24" x2="-213.05" y2="613.01" gradientTransform="translate(316)" xlink:href="#ペリドット"/><linearGradient id="ルビー-12" x1="-288.99" y1="629" x2="-288.99" y2="637" gradientTransform="translate(316)" xlink:href="#ルビー"/><linearGradient id="ペリドット-12" x1="-251.3" y1="629" x2="-251.3" y2="637" gradientTransform="translate(316)" xlink:href="#ペリドット"/><linearGradient id="ルビー-13" x1="-280.87" y1="175" x2="-280.87" y2="183" gradientTransform="translate(316)" xlink:href="#ルビー"/><linearGradient id="ペリドット-13" x1="-252.84" y1="175" x2="-252.84" y2="183" gradientTransform="translate(316)" xlink:href="#ペリドット"/><linearGradient id="新規グラデーションスウォッチ_1-11" x1="-260.14" y1="688.01" x2="-260.14" y2="680.24" xlink:href="#新規グラデーションスウォッチ_1"/><linearGradient id="サファイア-11" x1="-293.48" y1="680.24" x2="-293.48" y2="688.01" xlink:href="#サファイア"/><linearGradient id="新規グラデーションスウォッチ_1-12" x1="-299.5" y1="42" x2="-299.5" y2="34" xlink:href="#新規グラデーションスウォッチ_1"/><linearGradient id="サファイア-12" x1="-346.37" y1="34" x2="-346.37" y2="42" xlink:href="#サファイア"/><linearGradient id="新規グラデーションスウォッチ_1-13" x1="-438.62" y1="446" x2="-438.62" y2="438" gradientTransform="translate(510.85)" xlink:href="#新規グラデーションスウォッチ_1"/><linearGradient id="サファイア-13" x1="-469.46" y1="438" x2="-469.46" y2="446" gradientTransform="translate(510.85)" xlink:href="#サファイア"/><linearGradient id="新規グラデーションスウォッチ_1-14" x1="-444.83" y1="159" x2="-444.83" y2="151" gradientTransform="translate(510.85)" xlink:href="#新規グラデーションスウォッチ_1"/><linearGradient id="サファイア-14" x1="-483.39" y1="151" x2="-483.39" y2="159" gradientTransform="translate(510.85)" xlink:href="#サファイア"/><linearGradient id="新規グラデーションスウォッチ_1-15" x1="-380.25" y1="89" x2="-380.25" y2="81" gradientTransform="translate(510.85)" xlink:href="#新規グラデーションスウォッチ_1"/><linearGradient id="サファイア-15" x1="-415.92" y1="81" x2="-415.92" y2="89" gradientTransform="translate(510.85)" xlink:href="#サファイア"/><linearGradient id="ルビー-14" x1="-376.67" y1="562" x2="-376.67" y2="570" gradientTransform="translate(476)" xlink:href="#ルビー"/><linearGradient id="ペリドット-14" x1="-344.3" y1="562" x2="-344.3" y2="570" gradientTransform="translate(476)" xlink:href="#ペリドット"/><linearGradient id="ターコイズ-9" x1="3.89" y1="570.35" x2="156.15" y2="570.35" xlink:href="#ターコイズ"/><linearGradient id="ターコイズ-10" x1="11.74" y1="642.72" x2="164" y2="642.72" xlink:href="#ターコイズ"/><linearGradient id="ターコイズ-11" x1="11.74" y1="166.35" x2="164" y2="166.35" xlink:href="#ターコイズ"/><linearGradient id="ターコイズ-12" x1="3.89" y1="92.9" x2="156.15" y2="92.9" xlink:href="#ターコイズ"/><linearGradient id="ターコイズ-13" x1="3.89" y1="329.35" x2="156.15" y2="329.35" xlink:href="#ターコイズ"/><linearGradient id="ターコイズ-14" x1="11.74" y1="417.35" x2="164" y2="417.35" xlink:href="#ターコイズ"/></defs><title>二重らせんb</title><path d="M164,572.56c.56-59.79-152.82-60.63-152.26-120.41v40C11.18,551.93,164.56,552.77,164,612.56Z" style="stroke:#fff;stroke-miterlimit:10;stroke-width:0.286023266860035px;fill:url(#ターコイズ)"/><path d="M156,721.23C150.93,664.73,3.34,662.8,3.89,604.15v40c-.38,40.62,70.3,54,115.48,77.21Q137.69,721.42,156,721.23Z" style="stroke:#fff;stroke-miterlimit:10;stroke-width:0.286023266860035px;fill:url(#ターコイズ-2)"/><path d="M3.89,403.15c-.56,59.78,152.82,60.62,152.25,120.41v-40c.57-59.79-152.81-60.63-152.25-120.41Z" style="stroke:#fff;stroke-miterlimit:10;stroke-width:0.286023266860035px;fill:url(#ターコイズ-3)"/><path d="M164,327.56c.56-59.79-152.82-60.63-152.26-120.41v40C11.18,306.93,164.56,307.77,164,367.56Z" style="stroke:#fff;stroke-miterlimit:10;stroke-width:0.286023266860035px;fill:url(#ターコイズ-4)"/><path d="M3.89,164.15c-.56,59.78,152.82,60.62,152.25,120.41v-40c.57-59.79-152.81-60.63-152.25-120.41Z" style="stroke:#fff;stroke-miterlimit:10;stroke-width:0.286023266860035px;fill:url(#ターコイズ-5)"/><path d="M12.29,18.39C22.07,72.06,164.54,74.93,164,132.56v-40c.37-39.22-65.49-53.07-110.7-74.83C39.57,18.23,25.89,18.55,12.29,18.39Z" style="stroke:#fff;stroke-miterlimit:10;stroke-width:0.286023266860035px;fill:url(#ターコイズ-6)"/><path d="M11.74,726.56a32.69,32.69,0,0,1,.76-7.28l-.76,0Z" style="stroke:#fff;stroke-miterlimit:10;stroke-width:0.286023266860035px;fill:url(#ターコイズ-7)"/><path d="M155.8,15.24h.34v-5.1A33.91,33.91,0,0,1,155.8,15.24Z" style="stroke:#fff;stroke-miterlimit:10;stroke-width:0.286023266860035px;fill:url(#ターコイズ-8)"/><polygon points="13.2 230 72 230 76 226 72 222 13.2 222 13.2 230" style="fill:url(#新規グラデーションスウォッチ_1)"/><polygon points="72 230 132.65 230 132.65 222 72 222 76 226 72 230" style="fill:url(#サファイア)"/><path d="M88,253h58v-8H88s4,0,4,4S88,253,88,253Z" style="fill:url(#ルビー)"/><path d="M27,253H88s4,0,4-4-4-4-4-4H27Z" style="fill:url(#ペリドット)"/><path d="M46.17,207H14v-8H46.17S44,199,44,203,46.17,207,46.17,207Z" style="fill:url(#ルビー-2)"/><path d="M80,207H46.17S44,207,44,203s2.22-4,2.22-4H80Z" style="fill:url(#ペリドット-2)"/><polygon points="152 278 109.67 278 106.79 274 109.67 270 152 270 152 278" style="fill:url(#新規グラデーションスウォッチ_1-2)"/><polygon points="109.67 278 66 278 66 270 109.67 270 106.79 274 109.67 278" style="fill:url(#サファイア-2)"/><polygon points="95 301.01 121.58 301.01 123.39 297.12 121.58 293.24 95 293.24 95 301.01" style="fill:url(#新規グラデーションスウォッチ_1-3)"/><polygon points="121.58 301.01 149 301.01 149 293.24 121.58 293.24 123.39 297.12 121.58 301.01" style="fill:url(#サファイア-3)"/><path d="M116.39,325H151v-8H116.39s2.39,0,2.39,4S116.39,325,116.39,325Z" style="fill:url(#ルビー-3)"/><path d="M80,325h36.39s2.39,0,2.39-4-2.39-4-2.39-4H80Z" style="fill:url(#ペリドット-3)"/><path d="M101,348h59v-8H101s4.06,0,4.06,4S101,348,101,348Z" style="fill:url(#ルビー-4)"/><path d="M39,348h62s4.06,0,4.06-4-4.06-4-4.06-4H39Z" style="fill:url(#ペリドット-4)"/><path d="M88.08,492H149v-8H88.08s4.2,0,4.2,4S88.08,492,88.08,492Z" style="fill:url(#ルビー-5)"/><path d="M24,492H88.08s4.2,0,4.2-4-4.2-4-4.2-4H24Z" style="fill:url(#ペリドット-5)"/><path d="M116.34,542H149v-8H116.34s2.26,0,2.26,4S116.34,542,116.34,542Z" style="fill:url(#ルビー-6)"/><path d="M82,542h34.34s2.26,0,2.26-4-2.26-4-2.26-4H82Z" style="fill:url(#ペリドット-6)"/><path d="M69.85,711H122v-8H69.85a4,4,0,0,1,0,8Z" style="fill:url(#ルビー-7)"/><path d="M15,711H69.85a4,4,0,0,0,0-8H15Z" style="fill:url(#ペリドット-7)"/><path d="M100,112h58v-8H100s4,0,4,4S100,112,100,112Z" style="fill:url(#ルビー-8)"/><path d="M39,112h61s4,0,4-4-4-4-4-4H39Z" style="fill:url(#ペリドット-8)"/><polygon points="16.2 135 75 135 79 131 75 127 16.2 127 16.2 135" style="fill:url(#新規グラデーションスウォッチ_1-4)"/><polygon points="75 135 135.65 135 135.65 127 75 127 79 131 75 135" style="fill:url(#サファイア-4)"/><polygon points="24.2 420 73.82 420 77.19 416 73.82 412 24.2 412 24.2 420" style="fill:url(#新規グラデーションスウォッチ_1-5)"/><polygon points="73.82 420 125 420 125 412 73.82 412 77.19 416 73.82 420" style="fill:url(#サファイア-5)"/><polygon points="13.2 469 72 469 76 465 72 461 13.2 461 13.2 469" style="fill:url(#新規グラデーションスウォッチ_1-6)"/><polygon points="72 469 132.65 469 132.65 461 72 461 76 465 72 469" style="fill:url(#サファイア-6)"/><polygon points="34.2 590 95.14 590 99.28 586 95.14 582 34.2 582 34.2 590" style="fill:url(#新規グラデーションスウォッチ_1-7)"/><polygon points="95.14 590 158 590 158 582 95.14 582 99.28 586 95.14 590" style="fill:url(#サファイア-7)"/><polygon points="151.65 371 92.85 371 88.85 367 92.85 363 151.65 363 151.65 371" style="fill:url(#新規グラデーションスウォッチ_1-8)"/><polygon points="92.85 371 32.2 371 32.2 363 92.85 363 88.85 367 92.85 371" style="fill:url(#サファイア-8)"/><polygon points="152 517 99.43 517 95.85 513 99.43 509 152 509 152 517" style="fill:url(#新規グラデーションスウォッチ_1-9)"/><polygon points="99.43 517 45.2 517 45.2 509 99.43 509 95.85 513 99.43 517" style="fill:url(#サファイア-9)"/><polygon points="100 660 61.11 660 58.47 656 61.11 652 100 652 100 660" style="fill:url(#新規グラデーションスウォッチ_1-10)"/><polygon points="61.11 660 21 660 21 652 61.11 652 58.47 656 61.11 660" style="fill:url(#サファイア-10)"/><path d="M116.73,66H87V58h29.73s-2,0-2,4S116.73,66,116.73,66Z" style="fill:url(#ルビー-9)"/><path d="M148,66H116.73s-2,0-2-4,2-4,2-4H148Z" style="fill:url(#ペリドット-9)"/><path d="M59.64,395H7v-8H59.64a4,4,0,0,0,0,8Z" style="fill:url(#ルビー-10)"/><path d="M115,395H59.64a4,4,0,0,1,0-8H115Z" style="fill:url(#ペリドット-10)"/><path d="M74,613H15v-7.77H74s-4.06,0-4.06,3.88S74,613,74,613Z" style="fill:url(#ルビー-11)"/><path d="M136,613H74s-4.06,0-4.06-3.89S74,605.24,74,605.24h62Z" style="fill:url(#ペリドット-11)"/><path d="M46,637H8v-8H46s-2.63,0-2.63,4S46,637,46,637Z" style="fill:url(#ルビー-12)"/><path d="M86,637H46s-2.63,0-2.63-4S46,629,46,629H86Z" style="fill:url(#ペリドット-12)"/><path d="M49.27,183H21v-8H49.27s-2,0-2,4S49.27,183,49.27,183Z" style="fill:url(#ルビー-13)"/><path d="M79,183H49.27s-2,0-2-4,2-4,2-4H79Z" style="fill:url(#ペリドット-13)"/><polygon points="21 688.01 54.97 688.01 57.28 684.12 54.97 680.24 21 680.24 21 688.01" style="fill:url(#新規グラデーションスウォッチ_1-11)"/><polygon points="54.97 688.01 90 688.01 90 680.24 54.97 680.24 57.28 684.12 54.97 688.01" style="fill:url(#サファイア-11)"/><polygon points="53 42 100.75 42 104 38 100.75 34 53 34 53 42" style="fill:url(#新規グラデーションスウォッチ_1-12)"/><polygon points="100.75 42 150 42 150 34 100.75 34 104 38 100.75 42" style="fill:url(#サファイア-12)"/><polygon points="89 446 57.59 446 55.46 442 57.59 438 89 438 89 446" style="fill:url(#新規グラデーションスウォッチ_1-13)"/><polygon points="57.59 446 25.2 446 25.2 438 57.59 438 55.46 442 57.59 446" style="fill:url(#サファイア-13)"/><polygon points="87 159 47.72 159 45.05 155 47.72 151 87 151 87 159" style="fill:url(#新規グラデーションスウォッチ_1-14)"/><polygon points="47.72 159 7.2 159 7.2 151 47.72 151 45.05 155 47.72 159" style="fill:url(#サファイア-14)"/><polygon points="150 89 113.67 89 111.2 85 113.67 81 150 81 150 89" style="fill:url(#新規グラデーションスウォッチ_1-15)"/><polygon points="113.67 89 76.2 89 76.2 81 113.67 81 111.2 85 113.67 89" style="fill:url(#サファイア-15)"/><path d="M115.66,570H83v-8h32.66s-2.26,0-2.26,4S115.66,570,115.66,570Z" style="fill:url(#ルビー-14)"/><path d="M150,570H115.66s-2.26,0-2.26-4,2.26-4,2.26-4H150Z" style="fill:url(#ペリドット-14)"/><path d="M3.89,610.56c-.56-59.79,152.82-60.63,152.25-120.41v40c.57,59.78-152.81,60.62-152.25,120.41Z" style="stroke:#fff;stroke-miterlimit:10;stroke-width:0.286023266860035px;fill:url(#ターコイズ-9)"/><path d="M164,606.15v-40c.56,59.78-152.82,60.62-152.26,120.41v32.7l.76,0C23.91,666.61,164.54,663.4,164,606.15Z" style="stroke:#fff;stroke-miterlimit:10;stroke-width:0.286023266860035px;fill:url(#ターコイズ-10)"/><path d="M164,126.15c.56,59.78-152.82,60.62-152.26,120.41v-40C11.18,146.77,164.56,145.93,164,86.15Z" style="stroke:#fff;stroke-miterlimit:10;stroke-width:0.286023266860035px;fill:url(#ターコイズ-11)"/><path d="M3.89,130.56v40c-.56-59.79,152.82-60.63,152.25-120.41V15.25h-.34C147.86,70,3.34,72.52,3.89,130.56Z" style="stroke:#fff;stroke-miterlimit:10;stroke-width:0.286023266860035px;fill:url(#ターコイズ-12)"/><path d="M3.89,369.56c-.56-59.79,152.82-60.63,152.25-120.41v40c.57,59.78-152.81,60.62-152.25,120.41Z" style="stroke:#fff;stroke-miterlimit:10;stroke-width:0.286023266860035px;fill:url(#ターコイズ-13)"/><path d="M164,377.15c.56,59.78-152.82,60.62-152.26,120.41v-40C11.18,397.77,164.56,396.93,164,337.15Z" style="stroke:#fff;stroke-miterlimit:10;stroke-width:0.286023266860035px;fill:url(#ターコイズ-14)"/></svg>