<?xml version="1.0" encoding="UTF-8" standalone="no"?>
<!-- Creator: CorelDRAW -->

<svg
   xmlns:dc="http://purl.org/dc/elements/1.1/"
   xmlns:cc="http://creativecommons.org/ns#"
   xmlns:rdf="http://www.w3.org/1999/02/22-rdf-syntax-ns#"
   xmlns:svg="http://www.w3.org/2000/svg"
   xmlns="http://www.w3.org/2000/svg"
   xmlns:xlink="http://www.w3.org/1999/xlink"
   xmlns:sodipodi="http://sodipodi.sourceforge.net/DTD/sodipodi-0.dtd"
   xmlns:inkscape="http://www.inkscape.org/namespaces/inkscape"
   xml:space="preserve"
   width="238px"
   height="371px"
   style="shape-rendering:geometricPrecision; text-rendering:geometricPrecision; image-rendering:optimizeQuality; fill-rule:evenodd; clip-rule:evenodd"
   viewBox="0 0 238 371"
   id="svg4136"
   version="1.1"
   inkscape:version="0.91 r13725"
   sodipodi:docname="Deletion_of_chromosome_section gl.svg"><metadata
     id="metadata4358"><rdf:RDF><cc:Work
         rdf:about=""><dc:format>image/svg+xml</dc:format><dc:type
           rdf:resource="http://purl.org/dc/dcmitype/StillImage" /><dc:title></dc:title></cc:Work></rdf:RDF></metadata><sodipodi:namedview
     pagecolor="#ffffff"
     bordercolor="#666666"
     borderopacity="1"
     objecttolerance="10"
     gridtolerance="10"
     guidetolerance="10"
     inkscape:pageopacity="0"
     inkscape:pageshadow="2"
     inkscape:window-width="1920"
     inkscape:window-height="1017"
     id="namedview4356"
     showgrid="false"
     inkscape:zoom="2.2911051"
     inkscape:cx="119"
     inkscape:cy="155.55509"
     inkscape:window-x="-8"
     inkscape:window-y="-8"
     inkscape:window-maximized="1"
     inkscape:current-layer="svg4136" /><defs
     id="defs4138"><style
       type="text/css"
       id="style4140"><![CDATA[
    .str0 {stroke:black;stroke-width:0.900003}
    .str2 {stroke:black;stroke-width:2.12599}
    .str1 {stroke:black;stroke-width:2.12599;stroke-linecap:round}
    .fil0 {fill:none}
    .fil18 {fill:black}
    .fil12 {fill:url(#id0)}
    .fil14 {fill:url(#id1)}
    .fil16 {fill:url(#id2)}
    .fil27 {fill:url(#id3)}
    .fil29 {fill:url(#id4)}
    .fil31 {fill:url(#id5)}
    .fil33 {fill:url(#id6)}
    .fil35 {fill:url(#id7)}
    .fil38 {fill:url(#id8)}
    .fil40 {fill:url(#id9)}
    .fil42 {fill:url(#id10)}
    .fil2 {fill:url(#id11)}
    .fil4 {fill:url(#id12)}
    .fil6 {fill:url(#id13)}
    .fil8 {fill:url(#id14)}
    .fil10 {fill:url(#id15)}
    .fil20 {fill:url(#id16)}
    .fil22 {fill:url(#id17)}
    .fil24 {fill:url(#id18)}
    .fil11 {fill:url(#id19)}
    .fil13 {fill:url(#id20)}
    .fil15 {fill:url(#id21)}
    .fil26 {fill:url(#id22)}
    .fil28 {fill:url(#id23)}
    .fil30 {fill:url(#id24)}
    .fil32 {fill:url(#id25)}
    .fil34 {fill:url(#id26)}
    .fil36 {fill:url(#id27)}
    .fil37 {fill:url(#id28)}
    .fil39 {fill:url(#id29)}
    .fil41 {fill:url(#id30)}
    .fil43 {fill:url(#id31)}
    .fil1 {fill:url(#id32)}
    .fil3 {fill:url(#id33)}
    .fil5 {fill:url(#id34)}
    .fil7 {fill:url(#id35)}
    .fil9 {fill:url(#id36)}
    .fil17 {fill:url(#id37)}
    .fil19 {fill:url(#id38)}
    .fil21 {fill:url(#id39)}
    .fil23 {fill:url(#id40)}
    .fil25 {fill:url(#id41)}
    .fnt0 {font-weight:normal;font-size:11.4579;font-family:'Arial'}
    .fnt1 {font-weight:normal;font-size:12.4996;font-family:'Arial'}
   ]]></style><linearGradient
       id="id0"
       gradientUnits="userSpaceOnUse"
       x1="93.07"
       y1="183.855"
       x2="112.571"
       y2="183.855"><stop
         offset="0"
         style="stop-color:#0000A5"
         id="stop4143" /><stop
         offset="0.109804"
         style="stop-color:#0000A5"
         id="stop4145" /><stop
         offset="0.25098"
         style="stop-color:#0000EF"
         id="stop4147" /><stop
         offset="0.439216"
         style="stop-color:#0000EF"
         id="stop4149" /><stop
         offset="0.6"
         style="stop-color:black"
         id="stop4151" /><stop
         offset="0.74902"
         style="stop-color:black"
         id="stop4153" /><stop
         offset="0.890196"
         style="stop-color:#0000A5"
         id="stop4155" /><stop
         offset="1"
         style="stop-color:#0000A5"
         id="stop4157" /></linearGradient><linearGradient
       id="id1"
       gradientUnits="userSpaceOnUse"
       xlink:href="#id0"
       x1="93.07"
       y1="168.468"
       x2="112.571"
       y2="168.468" /><linearGradient
       id="id2"
       gradientUnits="userSpaceOnUse"
       xlink:href="#id0"
       x1="93.07"
       y1="133.432"
       x2="112.571"
       y2="133.432" /><linearGradient
       id="id3"
       gradientUnits="userSpaceOnUse"
       x1="179.251"
       y1="221.498"
       x2="198.752"
       y2="221.498"><stop
         offset="0"
         style="stop-color:#4A4A4A"
         id="stop4162" /><stop
         offset="0.101961"
         style="stop-color:#4A4A4A"
         id="stop4164" /><stop
         offset="0.25098"
         style="stop-color:#A5A5A5"
         id="stop4166" /><stop
         offset="0.439216"
         style="stop-color:#A5A5A5"
         id="stop4168" /><stop
         offset="0.6"
         style="stop-color:#101010"
         id="stop4170" /><stop
         offset="0.74902"
         style="stop-color:#101010"
         id="stop4172" /><stop
         offset="0.890196"
         style="stop-color:#4A4A4A"
         id="stop4174" /><stop
         offset="1"
         style="stop-color:#4A4A4A"
         id="stop4176" /></linearGradient><linearGradient
       id="id4"
       gradientUnits="userSpaceOnUse"
       xlink:href="#id3"
       x1="179.251"
       y1="202.497"
       x2="198.752"
       y2="202.497" /><linearGradient
       id="id5"
       gradientUnits="userSpaceOnUse"
       xlink:href="#id3"
       x1="179.251"
       y1="183.497"
       x2="198.752"
       y2="183.497" /><linearGradient
       id="id6"
       gradientUnits="userSpaceOnUse"
       xlink:href="#id3"
       x1="179.251"
       y1="160.456"
       x2="198.752"
       y2="160.456" /><linearGradient
       id="id7"
       gradientUnits="userSpaceOnUse"
       xlink:href="#id3"
       x1="179.251"
       y1="132.543"
       x2="198.752"
       y2="132.543" /><linearGradient
       id="id8"
       gradientUnits="userSpaceOnUse"
       xlink:href="#id3"
       x1="179.251"
       y1="96.4361"
       x2="198.752"
       y2="96.4361" /><linearGradient
       id="id9"
       gradientUnits="userSpaceOnUse"
       xlink:href="#id3"
       x1="179.251"
       y1="76.9692"
       x2="198.752"
       y2="76.9692" /><linearGradient
       id="id10"
       gradientUnits="userSpaceOnUse"
       xlink:href="#id3"
       x1="179.251"
       y1="63.6947"
       x2="198.752"
       y2="63.6947" /><linearGradient
       id="id11"
       gradientUnits="userSpaceOnUse"
       x1="93.07"
       y1="292.92"
       x2="112.571"
       y2="292.92"><stop
         offset="0"
         style="stop-color:#4A4A4A"
         id="stop4186" /><stop
         offset="0.109804"
         style="stop-color:#4A4A4A"
         id="stop4188" /><stop
         offset="0.25098"
         style="stop-color:#A5A5A5"
         id="stop4190" /><stop
         offset="0.439216"
         style="stop-color:#A5A5A5"
         id="stop4192" /><stop
         offset="0.6"
         style="stop-color:#101010"
         id="stop4194" /><stop
         offset="0.74902"
         style="stop-color:#101010"
         id="stop4196" /><stop
         offset="0.890196"
         style="stop-color:#4A4A4A"
         id="stop4198" /><stop
         offset="1"
         style="stop-color:#4A4A4A"
         id="stop4200" /></linearGradient><linearGradient
       id="id12"
       gradientUnits="userSpaceOnUse"
       xlink:href="#id11"
       x1="93.07"
       y1="273.92"
       x2="112.571"
       y2="273.92" /><linearGradient
       id="id13"
       gradientUnits="userSpaceOnUse"
       xlink:href="#id11"
       x1="93.07"
       y1="254.919"
       x2="112.571"
       y2="254.919" /><linearGradient
       id="id14"
       gradientUnits="userSpaceOnUse"
       xlink:href="#id11"
       x1="93.07"
       y1="231.878"
       x2="112.571"
       y2="231.878" /><linearGradient
       id="id15"
       gradientUnits="userSpaceOnUse"
       xlink:href="#id11"
       x1="93.07"
       y1="203.965"
       x2="112.571"
       y2="203.965" /><linearGradient
       id="id16"
       gradientUnits="userSpaceOnUse"
       xlink:href="#id11"
       x1="93.07"
       y1="96.4361"
       x2="112.571"
       y2="96.4361" /><linearGradient
       id="id17"
       gradientUnits="userSpaceOnUse"
       xlink:href="#id11"
       x1="93.07"
       y1="76.9692"
       x2="112.571"
       y2="76.9692" /><linearGradient
       id="id18"
       gradientUnits="userSpaceOnUse"
       xlink:href="#id11"
       x1="93.07"
       y1="63.6947"
       x2="112.571"
       y2="63.6947" /><linearGradient
       id="id19"
       gradientUnits="userSpaceOnUse"
       x1="93.07"
       y1="192.405"
       x2="112.571"
       y2="192.405"><stop
         offset="0"
         style="stop-color:#94B5E7"
         id="stop4210" /><stop
         offset="0.109804"
         style="stop-color:#94B5E7"
         id="stop4212" /><stop
         offset="0.25098"
         style="stop-color:white"
         id="stop4214" /><stop
         offset="0.439216"
         style="stop-color:white"
         id="stop4216" /><stop
         offset="0.6"
         style="stop-color:#4239FF"
         id="stop4218" /><stop
         offset="0.74902"
         style="stop-color:#4239FF"
         id="stop4220" /><stop
         offset="0.890196"
         style="stop-color:#94B5E7"
         id="stop4222" /><stop
         offset="1"
         style="stop-color:#94B5E7"
         id="stop4224" /></linearGradient><linearGradient
       id="id20"
       gradientUnits="userSpaceOnUse"
       xlink:href="#id19"
       x1="93.07"
       y1="176.412"
       x2="112.571"
       y2="176.412" /><linearGradient
       id="id21"
       gradientUnits="userSpaceOnUse"
       xlink:href="#id19"
       x1="93.07"
       y1="152.647"
       x2="112.571"
       y2="152.647" /><linearGradient
       id="id22"
       gradientUnits="userSpaceOnUse"
       x1="179.251"
       y1="232.233"
       x2="198.752"
       y2="232.233"><stop
         offset="0"
         style="stop-color:#ADADAD"
         id="stop4229" /><stop
         offset="0.101961"
         style="stop-color:#ADADAD"
         id="stop4231" /><stop
         offset="0.25098"
         style="stop-color:white"
         id="stop4233" /><stop
         offset="0.439216"
         style="stop-color:white"
         id="stop4235" /><stop
         offset="0.6"
         style="stop-color:#5A5A5A"
         id="stop4237" /><stop
         offset="0.74902"
         style="stop-color:#5A5A5A"
         id="stop4239" /><stop
         offset="0.890196"
         style="stop-color:#ADADAD"
         id="stop4241" /><stop
         offset="1"
         style="stop-color:#ADADAD"
         id="stop4243" /></linearGradient><linearGradient
       id="id23"
       gradientUnits="userSpaceOnUse"
       xlink:href="#id22"
       x1="179.251"
       y1="213.053"
       x2="198.752"
       y2="213.053" /><linearGradient
       id="id24"
       gradientUnits="userSpaceOnUse"
       xlink:href="#id22"
       x1="179.251"
       y1="190.475"
       x2="198.752"
       y2="190.475" /><linearGradient
       id="id25"
       gradientUnits="userSpaceOnUse"
       xlink:href="#id22"
       x1="179.251"
       y1="175.447"
       x2="198.752"
       y2="175.447" /><linearGradient
       id="id26"
       gradientUnits="userSpaceOnUse"
       xlink:href="#id22"
       x1="179.251"
       y1="146.034"
       x2="198.752"
       y2="146.034" /><linearGradient
       id="id27"
       gradientUnits="userSpaceOnUse"
       xlink:href="#id22"
       x1="179.251"
       y1="118.693"
       x2="198.752"
       y2="118.693" /><linearGradient
       id="id28"
       gradientUnits="userSpaceOnUse"
       xlink:href="#id22"
       x1="179.251"
       y1="103.486"
       x2="198.752"
       y2="103.486" /><linearGradient
       id="id29"
       gradientUnits="userSpaceOnUse"
       xlink:href="#id22"
       x1="179.251"
       y1="86.9176"
       x2="198.752"
       y2="86.9176" /><linearGradient
       id="id30"
       gradientUnits="userSpaceOnUse"
       xlink:href="#id22"
       x1="179.251"
       y1="70.9585"
       x2="198.752"
       y2="70.9585" /><linearGradient
       id="id31"
       gradientUnits="userSpaceOnUse"
       xlink:href="#id22"
       x1="179.251"
       y1="47.9317"
       x2="198.752"
       y2="47.9317" /><linearGradient
       id="id32"
       gradientUnits="userSpaceOnUse"
       x1="93.07"
       y1="303.655"
       x2="112.571"
       y2="303.655"><stop
         offset="0"
         style="stop-color:#ADADAD"
         id="stop4255" /><stop
         offset="0.109804"
         style="stop-color:#ADADAD"
         id="stop4257" /><stop
         offset="0.25098"
         style="stop-color:white"
         id="stop4259" /><stop
         offset="0.439216"
         style="stop-color:white"
         id="stop4261" /><stop
         offset="0.6"
         style="stop-color:#5A5A5A"
         id="stop4263" /><stop
         offset="0.74902"
         style="stop-color:#5A5A5A"
         id="stop4265" /><stop
         offset="0.890196"
         style="stop-color:#ADADAD"
         id="stop4267" /><stop
         offset="1"
         style="stop-color:#ADADAD"
         id="stop4269" /></linearGradient><linearGradient
       id="id33"
       gradientUnits="userSpaceOnUse"
       xlink:href="#id32"
       x1="93.07"
       y1="284.475"
       x2="112.571"
       y2="284.475" /><linearGradient
       id="id34"
       gradientUnits="userSpaceOnUse"
       xlink:href="#id32"
       x1="93.07"
       y1="261.897"
       x2="112.571"
       y2="261.897" /><linearGradient
       id="id35"
       gradientUnits="userSpaceOnUse"
       xlink:href="#id32"
       x1="93.07"
       y1="246.87"
       x2="112.571"
       y2="246.87" /><linearGradient
       id="id36"
       gradientUnits="userSpaceOnUse"
       xlink:href="#id32"
       x1="93.07"
       y1="217.457"
       x2="112.571"
       y2="217.457" /><linearGradient
       id="id37"
       gradientUnits="userSpaceOnUse"
       xlink:href="#id32"
       x1="93.07"
       y1="118.693"
       x2="112.571"
       y2="118.693" /><linearGradient
       id="id38"
       gradientUnits="userSpaceOnUse"
       xlink:href="#id32"
       x1="93.07"
       y1="103.486"
       x2="112.571"
       y2="103.486" /><linearGradient
       id="id39"
       gradientUnits="userSpaceOnUse"
       xlink:href="#id32"
       x1="93.07"
       y1="86.9176"
       x2="112.571"
       y2="86.9176" /><linearGradient
       id="id40"
       gradientUnits="userSpaceOnUse"
       xlink:href="#id32"
       x1="93.07"
       y1="70.9585"
       x2="112.571"
       y2="70.9585" /><linearGradient
       id="id41"
       gradientUnits="userSpaceOnUse"
       xlink:href="#id32"
       x1="93.07"
       y1="47.9317"
       x2="112.571"
       y2="47.9317" /><linearGradient
       inkscape:collect="always"
       xlink:href="#id32"
       id="linearGradient4360"
       gradientUnits="userSpaceOnUse"
       x1="93.07"
       y1="303.655"
       x2="112.571"
       y2="303.655" /><linearGradient
       inkscape:collect="always"
       xlink:href="#id11"
       id="linearGradient4362"
       gradientUnits="userSpaceOnUse"
       x1="93.07"
       y1="292.92"
       x2="112.571"
       y2="292.92" /><linearGradient
       inkscape:collect="always"
       xlink:href="#id19"
       id="linearGradient4364"
       gradientUnits="userSpaceOnUse"
       x1="93.07"
       y1="192.405"
       x2="112.571"
       y2="192.405" /><linearGradient
       inkscape:collect="always"
       xlink:href="#id0"
       id="linearGradient4366"
       gradientUnits="userSpaceOnUse"
       x1="93.07"
       y1="183.855"
       x2="112.571"
       y2="183.855" /><linearGradient
       inkscape:collect="always"
       xlink:href="#id22"
       id="linearGradient4368"
       gradientUnits="userSpaceOnUse"
       x1="179.251"
       y1="232.233"
       x2="198.752"
       y2="232.233" /><linearGradient
       inkscape:collect="always"
       xlink:href="#id3"
       id="linearGradient4370"
       gradientUnits="userSpaceOnUse"
       x1="179.251"
       y1="221.498"
       x2="198.752"
       y2="221.498" /></defs><g
     id="g4344"
     transform="matrix(0.941506,0,0,1,-11.0322,143.256)" /><g
     id="g4437"><rect
       class="fil0"
       x="-0.00058703998"
       y="-0.00058936398"
       width="238.00101"
       height="371.00101"
       id="rect4282"
       style="fill:none" /><g
       id="_48757296"><path
         id="_47544784"
         class="fil1 str0"
         d="m 112.571,298.36 0,9.5705 c 0,0.56221 -0.45827,1.02048 -1.02048,1.02048 l -17.4603,0 c -0.562207,0 -1.02048,-0.45827 -1.02048,-1.02048 l 0,-9.5705 19.5012,0 z"
         style="fill:url(#linearGradient4360);stroke:#000000;stroke-width:0.90000302"
         inkscape:connector-curvature="0" /><polygon
         id="_47514984"
         class="fil2 str0"
         points="112.571,298.36 93.07,298.36 93.07,297.665 93.07,287.481 112.571,287.481 112.571,297.979 "
         style="fill:url(#linearGradient4362);stroke:#000000;stroke-width:0.90000302" /><polygon
         id="_46785888"
         class="fil3 str0"
         points="112.571,287.481 93.07,287.481 93.07,286.786 93.07,281.471 112.571,281.471 112.571,287.1 "
         style="fill:url(#id33);stroke:#000000;stroke-width:0.90000302" /><polygon
         id="_46785440"
         class="fil4 str0"
         points="112.571,281.471 93.07,281.471 93.07,280.775 93.07,266.37 112.571,266.37 112.571,281.089 "
         style="fill:url(#id12);stroke:#000000;stroke-width:0.90000302" /><polygon
         id="_47549888"
         class="fil5 str0"
         points="112.571,266.37 93.07,266.37 93.07,265.675 93.07,257.424 112.571,257.424 112.571,265.989 "
         style="fill:url(#id34);stroke:#000000;stroke-width:0.90000302" /><polygon
         id="_47549440"
         class="fil6 str0"
         points="112.571,257.424 93.07,257.424 93.07,256.729 93.07,252.415 112.571,252.415 112.571,257.043 "
         style="fill:url(#id13);stroke:#000000;stroke-width:0.90000302" /><polygon
         id="_47540168"
         class="fil7 str0"
         points="112.571,252.415 93.07,252.415 93.07,251.72 93.07,241.325 112.571,241.325 112.571,252.034 "
         style="fill:url(#id35);stroke:#000000;stroke-width:0.90000302" /><polygon
         id="_47539128"
         class="fil8 str0"
         points="112.571,241.325 93.07,241.325 93.07,240.629 93.07,222.432 112.571,222.432 112.571,240.943 "
         style="fill:url(#id14);stroke:#000000;stroke-width:0.90000302" /><polygon
         id="_47512184"
         class="fil9 str0"
         points="112.571,222.432 93.07,222.432 93.07,221.736 93.07,212.483 112.571,212.483 112.571,222.05 "
         style="fill:url(#id36);stroke:#000000;stroke-width:0.90000302" /><polygon
         id="_47511200"
         class="fil10 str0"
         points="112.571,212.483 93.07,212.483 93.07,211.788 93.07,195.447 112.571,195.447 112.571,212.102 "
         style="fill:url(#id15);stroke:#000000;stroke-width:0.90000302" /><polygon
         id="_47509112"
         class="fil11 str0"
         points="112.571,195.447 93.07,195.447 93.07,194.751 93.07,189.363 112.571,189.363 112.571,195.066 "
         style="fill:url(#linearGradient4364);stroke:#000000;stroke-width:0.90000302" /><polygon
         id="_47508456"
         class="fil12 str0"
         points="112.571,189.363 93.07,189.363 93.07,188.668 93.07,178.345 112.571,178.345 112.571,188.982 "
         style="fill:url(#linearGradient4366);stroke:#000000;stroke-width:0.90000302" /><polygon
         id="_47458232"
         class="fil13 str0"
         points="112.571,178.345 93.07,178.345 93.07,177.649 93.07,174.48 112.571,174.48 112.571,177.963 "
         style="fill:url(#id20);stroke:#000000;stroke-width:0.90000302" /><polygon
         id="_46737840"
         class="fil14 str0"
         points="112.571,174.48 93.07,174.48 93.07,173.784 93.07,162.455 112.571,162.455 112.571,174.099 "
         style="fill:url(#id1);stroke:#000000;stroke-width:0.90000302" /><polygon
         id="_46742560"
         class="fil15 str0"
         points="112.571,162.455 93.07,162.455 93.07,161.76 93.07,142.838 112.571,142.838 112.571,162.074 "
         style="fill:url(#id21);stroke:#000000;stroke-width:0.90000302" /><polygon
         id="_46741568"
         class="fil16 str0"
         points="112.571,142.838 93.07,142.838 93.07,142.143 93.07,124.024 112.571,124.024 112.571,142.457 "
         style="fill:url(#id2);stroke:#000000;stroke-width:0.90000302" /><polygon
         id="_46741464"
         class="fil17 str0"
         points="112.571,123.643 112.571,124.024 93.07,124.024 93.07,123.329 93.07,113.824 93.3346,113.361 112.309,113.361 112.571,113.821 "
         style="fill:url(#id37);stroke:#000000;stroke-width:0.90000302" /><polygon
         id="_47468288"
         class="fil18 str0"
         points="110.576,110.319 112.088,112.973 112.309,113.361 93.3346,113.361 93.7255,112.676 95.0743,110.317 93.07,106.965 93.07,106.492 112.571,106.492 112.571,106.973 "
         style="fill:#000000;stroke:#000000;stroke-width:0.90000302" /><polygon
         id="_47444592"
         class="fil19 str0"
         points="112.571,106.492 93.07,106.492 93.07,105.796 93.07,100.48 112.571,100.48 112.571,106.111 "
         style="fill:url(#id38);stroke:#000000;stroke-width:0.90000302" /><polygon
         id="_47467328"
         class="fil20 str0"
         points="112.571,100.48 93.07,100.48 93.07,99.7846 93.07,92.392 112.571,92.392 112.571,100.099 "
         style="fill:url(#id16);stroke:#000000;stroke-width:0.90000302" /><polygon
         id="_47541832"
         class="fil21 str0"
         points="112.571,92.392 93.07,92.392 93.07,91.6964 93.07,81.442 112.571,81.442 112.571,92.0105 "
         style="fill:url(#id39);stroke:#000000;stroke-width:0.90000302" /><polygon
         id="_47516744"
         class="fil22 str0"
         points="112.571,81.442 93.07,81.442 93.07,80.7463 93.07,72.4963 112.571,72.4963 112.571,81.0605 "
         style="fill:url(#id17);stroke:#000000;stroke-width:0.90000302" /><polygon
         id="_47477600"
         class="fil23 str0"
         points="112.571,72.4963 93.07,72.4963 93.07,71.8006 93.07,69.4207 112.571,69.4207 112.571,72.1148 "
         style="fill:url(#id40);stroke:#000000;stroke-width:0.90000302" /><polygon
         id="_47478504"
         class="fil24 str0"
         points="112.571,69.4207 93.07,69.4207 93.07,68.725 93.07,57.9687 112.571,57.9687 112.571,69.0392 "
         style="fill:url(#id18);stroke:#000000;stroke-width:0.90000302" /><path
         id="_47397832"
         class="fil25 str0"
         d="m 94.0905,37.8946 17.4603,0 c 0.56221,0 1.02048,0.458269 1.02048,1.02048 l 0,18.6721 0,0.381497 -19.5012,0 0,-0.695672 0,-18.3579 c 0,-0.562207 0.458269,-1.02048 1.02048,-1.02048 z"
         style="fill:url(#id41);stroke:#000000;stroke-width:0.90000302"
         inkscape:connector-curvature="0" /></g><g
       id="_48734056"><path
         id="_46781112"
         class="fil26 str0"
         d="m 198.752,226.938 0,9.5705 c 0,0.56221 -0.45827,1.02048 -1.02048,1.02048 l -17.4603,0 c -0.56221,0 -1.02048,-0.45827 -1.02048,-1.02048 l 0,-9.5705 19.5012,0 z"
         style="fill:url(#linearGradient4368);stroke:#000000;stroke-width:0.90000302"
         inkscape:connector-curvature="0" /><polygon
         id="_46739752"
         class="fil27 str0"
         points="198.752,226.938 179.251,226.938 179.251,226.242 179.251,216.059 198.752,216.059 198.752,226.556 "
         style="fill:url(#linearGradient4370);stroke:#000000;stroke-width:0.90000302" /><polygon
         id="_47502664"
         class="fil28 str0"
         points="198.752,216.059 179.251,216.059 179.251,215.363 179.251,210.048 198.752,210.048 198.752,215.677 "
         style="fill:url(#id23);stroke:#000000;stroke-width:0.90000302" /><polygon
         id="_47501872"
         class="fil29 str0"
         points="198.752,210.048 179.251,210.048 179.251,209.352 179.251,194.947 198.752,194.947 198.752,209.666 "
         style="fill:url(#id4);stroke:#000000;stroke-width:0.90000302" /><polygon
         id="_47501736"
         class="fil30 str0"
         points="198.752,194.947 179.251,194.947 179.251,194.252 179.251,186.002 198.752,186.002 198.752,194.566 "
         style="fill:url(#id24);stroke:#000000;stroke-width:0.90000302" /><polygon
         id="_47465472"
         class="fil31 str0"
         points="198.752,186.002 179.251,186.002 179.251,185.306 179.251,180.993 198.752,180.993 198.752,185.62 "
         style="fill:url(#id5);stroke:#000000;stroke-width:0.90000302" /><polygon
         id="_47453400"
         class="fil32 str0"
         points="198.752,180.993 179.251,180.993 179.251,180.297 179.251,169.902 198.752,169.902 198.752,180.611 "
         style="fill:url(#id25);stroke:#000000;stroke-width:0.90000302" /><polygon
         id="_47491088"
         class="fil33 str0"
         points="198.752,169.902 179.251,169.902 179.251,169.206 179.251,151.009 198.752,151.009 198.752,169.521 "
         style="fill:url(#id6);stroke:#000000;stroke-width:0.90000302" /><polygon
         id="_47519624"
         class="fil34 str0"
         points="198.752,151.009 179.251,151.009 179.251,150.313 179.251,141.061 198.752,141.061 198.752,150.628 "
         style="fill:url(#id26);stroke:#000000;stroke-width:0.90000302" /><polygon
         id="_47484384"
         class="fil35 str0"
         points="198.752,141.061 179.251,141.061 179.251,140.365 179.251,124.024 198.752,124.024 198.752,140.679 "
         style="fill:url(#id7);stroke:#000000;stroke-width:0.90000302" /><polygon
         id="_47490416"
         class="fil36 str0"
         points="198.752,123.643 198.752,124.024 179.251,124.024 179.251,123.329 179.251,113.824 179.515,113.361 198.49,113.361 198.752,113.821 "
         style="fill:url(#id27);stroke:#000000;stroke-width:0.90000302" /><polygon
         id="_47487440"
         class="fil18 str0"
         points="196.757,110.319 198.269,112.973 198.49,113.361 179.515,113.361 179.906,112.676 181.255,110.317 179.251,106.965 179.251,106.492 198.752,106.492 198.752,106.973 "
         style="fill:#000000;stroke:#000000;stroke-width:0.90000302" /><polygon
         id="_47480480"
         class="fil37 str0"
         points="198.752,106.492 179.251,106.492 179.251,105.796 179.251,100.48 198.752,100.48 198.752,106.111 "
         style="fill:url(#id28);stroke:#000000;stroke-width:0.90000302" /><polygon
         id="_47537184"
         class="fil38 str0"
         points="198.752,100.48 179.251,100.48 179.251,99.7846 179.251,92.392 198.752,92.392 198.752,100.099 "
         style="fill:url(#id8);stroke:#000000;stroke-width:0.90000302" /><polygon
         id="_47460840"
         class="fil39 str0"
         points="198.752,92.392 179.251,92.392 179.251,91.6964 179.251,81.442 198.752,81.442 198.752,92.0105 "
         style="fill:url(#id29);stroke:#000000;stroke-width:0.90000302" /><polygon
         id="_47513096"
         class="fil40 str0"
         points="198.752,81.442 179.251,81.442 179.251,80.7463 179.251,72.4963 198.752,72.4963 198.752,81.0605 "
         style="fill:url(#id9);stroke:#000000;stroke-width:0.90000302" /><polygon
         id="_47451040"
         class="fil41 str0"
         points="198.752,72.4963 179.251,72.4963 179.251,71.8006 179.251,69.4207 198.752,69.4207 198.752,72.1148 "
         style="fill:url(#id30);stroke:#000000;stroke-width:0.90000302" /><polygon
         id="_46740592"
         class="fil42 str0"
         points="198.752,69.4207 179.251,69.4207 179.251,68.725 179.251,57.9687 198.752,57.9687 198.752,69.0392 "
         style="fill:url(#id10);stroke:#000000;stroke-width:0.90000302" /><path
         id="_47512824"
         class="fil43 str0"
         d="m 180.271,37.8946 17.4603,0 c 0.56221,0 1.02048,0.458269 1.02048,1.02048 l 0,18.6721 0,0.381497 -19.5012,0 0,-0.695672 0,-18.3579 c 0,-0.562207 0.45827,-1.02048 1.02048,-1.02048 z"
         style="fill:url(#id31);stroke:#000000;stroke-width:0.90000302"
         inkscape:connector-curvature="0" /></g><rect
       class="fil0 str0"
       x="93.07"
       y="124.024"
       width="39.002499"
       height="71.422699"
       id="rect4330"
       style="fill:none;stroke:#000000;stroke-width:0.90000302" /><g
       id="_47504688"><line
         id="_47504856"
         class="fil0 str1"
         x1="120.061"
         y1="191.311"
         x2="82.076302"
         y2="124.555"
         style="fill:none;stroke:#000000;stroke-width:2.12598991;stroke-linecap:round" /><line
         id="_47504792"
         class="fil0 str1"
         x1="83.667198"
         y1="191.311"
         x2="121.652"
         y2="124.555"
         style="fill:none;stroke:#000000;stroke-width:2.12598991;stroke-linecap:round" /></g><line
       class="fil0 str0"
       x1="179.92599"
       y1="124.024"
       x2="215.79401"
       y2="124.024"
       id="line4335"
       style="fill:none;stroke:#000000;stroke-width:0.90000302" /><g
       id="_47543944"><polygon
         id="_47498688"
         class="fil18"
         points="166.433,138.661 164.743,132.197 158.895,127.391 173.647,127.459 "
         style="fill:#000000" /><line
         id="_47543968"
         class="fil0 str2"
         x1="164.743"
         y1="132.19701"
         x2="132.07201"
         y2="157.058"
         style="fill:none;stroke:#000000;stroke-width:2.12598991" /></g><g
       transform="matrix(0.941506,0,0,1,-97.6404,-31.2273)"
       id="g4340"><text
         x="106"
         y="185.5"
         class="fil18 fnt0"
         id="text4342"
         style="font-weight:normal;font-size:11.45790005px;font-family:Arial;fill:#000000">Área de deleción</text>
</g><text
       x="96.336479"
       y="185.5"
       class="fil18 fnt1"
       id="text4346"
       style="shape-rendering:geometricPrecision;text-rendering:geometricPrecision;image-rendering:optimizeQuality;fill-rule:evenodd;clip-rule:evenodd;font-weight:normal;font-size:12.49960041px;font-family:Arial;fill:#000000"
       transform="matrix(0.941506,0,0,1,-11.0322,143.256)">Antes da</text>
<text
       x="97.107002"
       y="199.464"
       class="fil18 fnt1"
       id="text4348"
       style="shape-rendering:geometricPrecision;text-rendering:geometricPrecision;image-rendering:optimizeQuality;fill-rule:evenodd;clip-rule:evenodd;font-weight:normal;font-size:12.49960041px;font-family:Arial;fill:#000000"
       transform="matrix(0.941506,0,0,1,-11.0322,143.256)">deleción</text>
<g
       transform="matrix(0.941506,0,0,1,77.2142,143.256)"
       id="g4350"><text
         x="88.806923"
         y="185.5"
         class="fil18 fnt1"
         id="text4352"
         style="font-weight:normal;font-size:12.49960041px;font-family:Arial;fill:#000000">Despois da</text>
<text
         x="97.107002"
         y="199.464"
         class="fil18 fnt1"
         id="text4354"
         style="font-weight:normal;font-size:12.49960041px;font-family:Arial;fill:#000000">deleción</text>
</g></g></svg>